<svg width="64" height="48" viewBox="0 0 64 48" fill="none" xmlns="http://www.w3.org/2000/svg">
<path d="M64 7.99992V47.9999H0V7.99992H20V3.99992C20 3.43742 20.1042 2.91659 20.3125 2.43742C20.5208 1.95825 20.8021 1.54159 21.1562 1.18742C21.5104 0.833252 21.9375 0.541585 22.4375 0.312419C22.9375 0.0832519 23.4583 -0.0209147 24 -8.13801e-05H40C40.5625 -8.13801e-05 41.0833 0.104085 41.5625 0.312419C42.0417 0.520752 42.4583 0.802002 42.8125 1.15617C43.1667 1.51034 43.4583 1.93742 43.6875 2.43742C43.9167 2.93742 44.0208 3.45825 44 3.99992V7.99992H64ZM24 7.99992H40V3.99992H24V7.99992ZM4 11.9999V17.7812L24 27.7499V23.9999H40V27.7499L60 17.7812V11.9999H4ZM28 27.9999V31.9999H36V27.9999H28ZM60 43.9999V22.2187L40 32.2499V35.9999H24V32.2499L4 22.2187V43.9999H60Z" fill="black"/>
</svg>
