<svg width="1188" height="330" viewBox="0 0 1188 330" fill="none" xmlns="http://www.w3.org/2000/svg">
<path d="M499.174 12.9159L520.5 0.577648L541.826 12.9159L562.871 25.7823L563.164 51L562.871 76.2177L541.827 89.084L520.5 101.422L499.173 89.084L478.129 76.2177L477.836 51L478.129 25.7823L499.174 12.9159Z" stroke="#E6BE49"/>
<path d="M499.174 164.916L520.5 152.578L541.826 164.916L562.871 177.782L563.164 203L562.871 228.218L541.827 241.084L520.5 253.422L499.173 241.084L478.129 228.218L477.836 203L478.129 177.782L499.174 164.916Z" stroke="#E6BE49"/>
<path d="M838.174 12.9159L859.5 0.577648L880.826 12.9159L901.871 25.7823L902.164 51L901.871 76.2177L880.827 89.084L859.5 101.422L838.173 89.084L817.129 76.2177L816.836 51L817.129 25.7823L838.174 12.9159Z" stroke="#E6BE49"/>
<path d="M74.1736 12.9159L95.5 0.577648L116.826 12.9159L137.871 25.7823L138.164 51L137.871 76.2177L116.827 89.084L95.5 101.422L74.1735 89.084L53.1285 76.2177L52.836 51L53.1285 25.7823L74.1736 12.9159Z" stroke="#E6BE49"/>
<path d="M839.174 164.916L860.5 152.578L881.826 164.916L902.871 177.782L903.164 203L902.871 228.218L881.827 241.084L860.5 253.422L839.173 241.084L818.129 228.218L817.836 203L818.129 177.782L839.174 164.916Z" stroke="#E6BE49"/>
<path d="M75.1736 164.916L96.5 152.578L117.826 164.916L138.871 177.782L139.164 203L138.871 228.218L117.827 241.084L96.5 253.422L75.1735 241.084L54.1285 228.218L53.836 203L54.1285 177.782L75.1736 164.916Z" stroke="#E6BE49"/>
<path d="M669.174 12.9159L690.5 0.577648L711.826 12.9159L732.871 25.7823L733.164 51L732.871 76.2177L711.827 89.084L690.5 101.422L669.173 89.084L648.129 76.2177L647.836 51L648.129 25.7823L669.174 12.9159Z" stroke="#E6BE49"/>
<path d="M669.174 164.916L690.5 152.578L711.826 164.916L732.871 177.782L733.164 203L732.871 228.218L711.827 241.084L690.5 253.422L669.173 241.084L648.129 228.218L647.836 203L648.129 177.782L669.174 164.916Z" stroke="#E6BE49"/>
<path d="M1008.17 12.9159L1029.5 0.577648L1050.83 12.9159L1071.87 25.7823L1072.16 51L1071.87 76.2177L1050.83 89.084L1029.5 101.422L1008.17 89.084L987.129 76.2177L986.836 51L987.129 25.7823L1008.17 12.9159Z" stroke="#E6BE49"/>
<path d="M244.174 12.9159L265.5 0.577648L286.826 12.9159L307.871 25.7823L308.164 51L307.871 76.2177L286.827 89.084L265.5 101.422L244.173 89.084L223.129 76.2177L222.836 51L223.129 25.7823L244.174 12.9159Z" stroke="#E6BE49"/>
<path d="M1009.17 164.916L1030.5 152.578L1051.83 164.916L1072.87 177.782L1073.16 203L1072.87 228.218L1051.83 241.084L1030.5 253.422L1009.17 241.084L988.129 228.218L987.836 203L988.129 177.782L1009.17 164.916Z" stroke="#E6BE49"/>
<path d="M245.174 164.916L266.5 152.578L287.826 164.916L308.871 177.782L309.164 203L308.871 228.218L287.827 241.084L266.5 253.422L245.173 241.084L224.129 228.218L223.836 203L224.129 177.782L245.174 164.916Z" stroke="#E6BE49"/>
<path d="M457.174 88.9159L478.5 76.5776L499.826 88.9159L520.871 101.782L521.164 127L520.871 152.218L499.827 165.084L478.5 177.422L457.173 165.084L436.129 152.218L435.836 127L436.129 101.782L457.174 88.9159Z" stroke="#E6BE49"/>
<path d="M457.174 240.916L478.5 228.578L499.826 240.916L520.871 253.782L521.164 279L520.871 304.218L499.827 317.084L478.5 329.422L457.173 317.084L436.129 304.218L435.836 279L436.129 253.782L457.174 240.916Z" stroke="#E6BE49"/>
<path d="M796.174 88.9159L817.5 76.5776L838.826 88.9159L859.871 101.782L860.164 127L859.871 152.218L838.827 165.084L817.5 177.422L796.173 165.084L775.129 152.218L774.836 127L775.129 101.782L796.174 88.9159Z" stroke="#E6BE49"/>
<path d="M32.1736 88.9159L53.5 76.5776L74.8265 88.9159L95.8715 101.782L96.164 127L95.8715 152.218L74.8266 165.084L53.5 177.422L32.1735 165.084L11.1285 152.218L10.836 127L11.1285 101.782L32.1736 88.9159Z" stroke="#E6BE49"/>
<path d="M797.174 240.916L818.5 228.578L839.826 240.916L860.871 253.782L861.164 279L860.871 304.218L839.827 317.084L818.5 329.422L797.173 317.084L776.129 304.218L775.836 279L776.129 253.782L797.174 240.916Z" stroke="#E6BE49"/>
<path d="M33.1736 240.916L54.5 228.578L75.8265 240.916L96.8715 253.782L97.164 279L96.8715 304.218L75.8266 317.084L54.5 329.422L33.1735 317.084L12.1285 304.218L11.836 279L12.1285 253.782L33.1736 240.916Z" stroke="#E6BE49"/>
<path d="M627.174 88.9159L648.5 76.5776L669.826 88.9159L690.871 101.782L691.164 127L690.871 152.218L669.827 165.084L648.5 177.422L627.173 165.084L606.129 152.218L605.836 127L606.129 101.782L627.174 88.9159Z" stroke="#E6BE49"/>
<path d="M627.174 240.916L648.5 228.578L669.826 240.916L690.871 253.782L691.164 279L690.871 304.218L669.827 317.084L648.5 329.422L627.173 317.084L606.129 304.218L605.836 279L606.129 253.782L627.174 240.916Z" stroke="#E6BE49"/>
<path d="M966.174 88.9159L987.5 76.5776L1008.83 88.9159L1029.87 101.782L1030.16 127L1029.87 152.218L1008.83 165.084L987.5 177.422L966.173 165.084L945.129 152.218L944.836 127L945.129 101.782L966.174 88.9159Z" stroke="#E6BE49"/>
<path d="M202.174 88.9159L223.5 76.5776L244.826 88.9159L265.871 101.782L266.164 127L265.871 152.218L244.827 165.084L223.5 177.422L202.173 165.084L181.129 152.218L180.836 127L181.129 101.782L202.174 88.9159Z" stroke="#E6BE49"/>
<path d="M967.174 240.916L988.5 228.578L1009.83 240.916L1030.87 253.782L1031.16 279L1030.87 304.218L1009.83 317.084L988.5 329.422L967.173 317.084L946.129 304.218L945.836 279L946.129 253.782L967.174 240.916Z" stroke="#E6BE49"/>
<path d="M203.174 240.916L224.5 228.578L245.826 240.916L266.871 253.782L267.164 279L266.871 304.218L245.827 317.084L224.5 329.422L203.173 317.084L182.129 304.218L181.836 279L182.129 253.782L203.174 240.916Z" stroke="#E6BE49"/>
<path d="M584.174 12.9159L605.5 0.577648L626.826 12.9159L647.871 25.7823L648.164 51L647.871 76.2177L626.827 89.084L605.5 101.422L584.173 89.084L563.129 76.2177L562.836 51L563.129 25.7823L584.174 12.9159Z" stroke="#E6BE49"/>
<path d="M584.174 164.916L605.5 152.578L626.826 164.916L647.871 177.782L648.164 203L647.871 228.218L626.827 241.084L605.5 253.422L584.173 241.084L563.129 228.218L562.836 203L563.129 177.782L584.174 164.916Z" stroke="#E6BE49"/>
<path d="M923.174 12.9159L944.5 0.577648L965.826 12.9159L986.871 25.7823L987.164 51L986.871 76.2177L965.827 89.084L944.5 101.422L923.173 89.084L902.129 76.2177L901.836 51L902.129 25.7823L923.174 12.9159Z" stroke="#E6BE49"/>
<path d="M159.174 12.9159L180.5 0.577648L201.826 12.9159L222.871 25.7823L223.164 51L222.871 76.2177L201.827 89.084L180.5 101.422L159.173 89.084L138.129 76.2177L137.836 51L138.129 25.7823L159.174 12.9159Z" stroke="#E6BE49"/>
<path d="M924.174 164.916L945.5 152.578L966.826 164.916L987.871 177.782L988.164 203L987.871 228.218L966.827 241.084L945.5 253.422L924.173 241.084L903.129 228.218L902.836 203L903.129 177.782L924.174 164.916Z" stroke="#E6BE49"/>
<path d="M160.174 164.916L181.5 152.578L202.826 164.916L223.871 177.782L224.164 203L223.871 228.218L202.827 241.084L181.5 253.422L160.173 241.084L139.129 228.218L138.836 203L139.129 177.782L160.174 164.916Z" stroke="#E6BE49"/>
<path d="M754.174 12.9159L775.5 0.577648L796.826 12.9159L817.871 25.7823L818.164 51L817.871 76.2177L796.827 89.084L775.5 101.422L754.173 89.084L733.129 76.2177L732.836 51L733.129 25.7823L754.174 12.9159Z" stroke="#E6BE49"/>
<path d="M-9.82636 12.9159L11.5 0.577648L32.8265 12.9159L53.8715 25.7823L54.164 51L53.8715 76.2177L32.8266 89.084L11.5 101.422L-9.8265 89.084L-30.8715 76.2177L-31.164 51L-30.8715 25.7823L-9.82636 12.9159Z" stroke="#E6BE49"/>
<path d="M754.174 164.916L775.5 152.578L796.826 164.916L817.871 177.782L818.164 203L817.871 228.218L796.827 241.084L775.5 253.422L754.173 241.084L733.129 228.218L732.836 203L733.129 177.782L754.174 164.916Z" stroke="#E6BE49"/>
<path d="M-9.82636 164.916L11.5 152.578L32.8265 164.916L53.8715 177.782L54.164 203L53.8715 228.218L32.8266 241.084L11.5 253.422L-9.8265 241.084L-30.8715 228.218L-31.164 203L-30.8715 177.782L-9.82636 164.916Z" stroke="#E6BE49"/>
<path d="M1093.17 12.9159L1114.5 0.577648L1135.83 12.9159L1156.87 25.7823L1157.16 51L1156.87 76.2177L1135.83 89.084L1114.5 101.422L1093.17 89.084L1072.13 76.2177L1071.84 51L1072.13 25.7823L1093.17 12.9159Z" stroke="#E6BE49"/>
<path d="M329.174 12.9159L350.5 0.577648L371.826 12.9159L392.871 25.7823L393.164 51L392.871 76.2177L371.827 89.084L350.5 101.422L329.173 89.084L308.129 76.2177L307.836 51L308.129 25.7823L329.174 12.9159Z" stroke="#E6BE49"/>
<path d="M1178.17 12.9159L1199.5 0.577648L1220.83 12.9159L1241.87 25.7823L1242.16 51L1241.87 76.2177L1220.83 89.084L1199.5 101.422L1178.17 89.084L1157.13 76.2177L1156.84 51L1157.13 25.7823L1178.17 12.9159Z" stroke="#E6BE49"/>
<path d="M414.174 12.9159L435.5 0.577648L456.826 12.9159L477.871 25.7823L478.164 51L477.871 76.2177L456.827 89.084L435.5 101.422L414.173 89.084L393.129 76.2177L392.836 51L393.129 25.7823L414.174 12.9159Z" stroke="#E6BE49"/>
<path d="M1136.17 88.9159L1157.5 76.5776L1178.83 88.9159L1199.87 101.782L1200.16 127L1199.87 152.218L1178.83 165.084L1157.5 177.422L1136.17 165.084L1115.13 152.218L1114.84 127L1115.13 101.782L1136.17 88.9159Z" stroke="#E6BE49"/>
<path d="M372.174 88.9159L393.5 76.5776L414.826 88.9159L435.871 101.782L436.164 127L435.871 152.218L414.827 165.084L393.5 177.422L372.173 165.084L351.129 152.218L350.836 127L351.129 101.782L372.174 88.9159Z" stroke="#E6BE49"/>
<path d="M1137.17 240.916L1158.5 228.578L1179.83 240.916L1200.87 253.782L1201.16 279L1200.87 304.218L1179.83 317.084L1158.5 329.422L1137.17 317.084L1116.13 304.218L1115.84 279L1116.13 253.782L1137.17 240.916Z" stroke="#E6BE49"/>
<path d="M373.174 240.916L394.5 228.578L415.826 240.916L436.871 253.782L437.164 279L436.871 304.218L415.827 317.084L394.5 329.422L373.173 317.084L352.129 304.218L351.836 279L352.129 253.782L373.174 240.916Z" stroke="#E6BE49"/>
<path d="M1094.17 164.916L1115.5 152.578L1136.83 164.916L1157.87 177.782L1158.16 203L1157.87 228.218L1136.83 241.084L1115.5 253.422L1094.17 241.084L1073.13 228.218L1072.84 203L1073.13 177.782L1094.17 164.916Z" stroke="#E6BE49"/>
<path d="M330.174 164.916L351.5 152.578L372.826 164.916L393.871 177.782L394.164 203L393.871 228.218L372.827 241.084L351.5 253.422L330.173 241.084L309.129 228.218L308.836 203L309.129 177.782L330.174 164.916Z" stroke="#E6BE49"/>
<path d="M542.174 88.9159L563.5 76.5776L584.826 88.9159L605.871 101.782L606.164 127L605.871 152.218L584.827 165.084L563.5 177.422L542.173 165.084L521.129 152.218L520.836 127L521.129 101.782L542.174 88.9159Z" stroke="#E6BE49"/>
<path d="M542.174 240.916L563.5 228.578L584.826 240.916L605.871 253.782L606.164 279L605.871 304.218L584.827 317.084L563.5 329.422L542.173 317.084L521.129 304.218L520.836 279L521.129 253.782L542.174 240.916Z" stroke="#E6BE49"/>
<path d="M881.174 88.9159L902.5 76.5776L923.826 88.9159L944.871 101.782L945.164 127L944.871 152.218L923.827 165.084L902.5 177.422L881.173 165.084L860.129 152.218L859.836 127L860.129 101.782L881.174 88.9159Z" stroke="#E6BE49"/>
<path d="M117.174 88.9159L138.5 76.5776L159.826 88.9159L180.871 101.782L181.164 127L180.871 152.218L159.827 165.084L138.5 177.422L117.173 165.084L96.1285 152.218L95.836 127L96.1285 101.782L117.174 88.9159Z" stroke="#E6BE49"/>
<path d="M882.174 240.916L903.5 228.578L924.826 240.916L945.871 253.782L946.164 279L945.871 304.218L924.827 317.084L903.5 329.422L882.173 317.084L861.129 304.218L860.836 279L861.129 253.782L882.174 240.916Z" stroke="#E6BE49"/>
<path d="M118.174 240.916L139.5 228.578L160.826 240.916L181.871 253.782L182.164 279L181.871 304.218L160.827 317.084L139.5 329.422L118.173 317.084L97.1285 304.218L96.836 279L97.1285 253.782L118.174 240.916Z" stroke="#E6BE49"/>
<path d="M712.174 88.9159L733.5 76.5776L754.826 88.9159L775.871 101.782L776.164 127L775.871 152.218L754.827 165.084L733.5 177.422L712.173 165.084L691.129 152.218L690.836 127L691.129 101.782L712.174 88.9159Z" stroke="#E6BE49"/>
<path d="M-51.8264 88.9159L-30.5 76.5776L-9.17354 88.9159L11.8715 101.782L12.164 127L11.8715 152.218L-9.17339 165.084L-30.5 177.422L-51.8265 165.084L-72.8715 152.218L-73.164 127L-72.8715 101.782L-51.8264 88.9159Z" stroke="#E6BE49"/>
<path d="M712.174 240.916L733.5 228.578L754.826 240.916L775.871 253.782L776.164 279L775.871 304.218L754.827 317.084L733.5 329.422L712.173 317.084L691.129 304.218L690.836 279L691.129 253.782L712.174 240.916Z" stroke="#E6BE49"/>
<path d="M-51.8264 240.916L-30.5 228.578L-9.17354 240.916L11.8715 253.782L12.164 279L11.8715 304.218L-9.17339 317.084L-30.5 329.422L-51.8265 317.084L-72.8715 304.218L-73.164 279L-72.8715 253.782L-51.8264 240.916Z" stroke="#E6BE49"/>
<path d="M1051.17 88.9159L1072.5 76.5776L1093.83 88.9159L1114.87 101.782L1115.16 127L1114.87 152.218L1093.83 165.084L1072.5 177.422L1051.17 165.084L1030.13 152.218L1029.84 127L1030.13 101.782L1051.17 88.9159Z" stroke="#E6BE49"/>
<path d="M287.174 88.9159L308.5 76.5776L329.826 88.9159L350.871 101.782L351.164 127L350.871 152.218L329.827 165.084L308.5 177.422L287.173 165.084L266.129 152.218L265.836 127L266.129 101.782L287.174 88.9159Z" stroke="#E6BE49"/>
<path d="M1052.17 240.916L1073.5 228.578L1094.83 240.916L1115.87 253.782L1116.16 279L1115.87 304.218L1094.83 317.084L1073.5 329.422L1052.17 317.084L1031.13 304.218L1030.84 279L1031.13 253.782L1052.17 240.916Z" stroke="#E6BE49"/>
<path d="M288.174 240.916L309.5 228.578L330.826 240.916L351.871 253.782L352.164 279L351.871 304.218L330.827 317.084L309.5 329.422L288.173 317.084L267.129 304.218L266.836 279L267.129 253.782L288.174 240.916Z" stroke="#E6BE49"/>
</svg>
