<svg width="58" height="58" viewBox="0 0 58 58" fill="none" xmlns="http://www.w3.org/2000/svg">
<path d="M27.7067 55.3787L28.4 54.2107L24.9547 52.1733L24.2614 53.3413L27.7067 55.3787ZM18.9334 54.2107L19.6267 55.3787L23.0694 53.3413L22.376 52.1733L18.9334 54.2107ZM24.264 53.3413C24.2028 53.4442 24.1151 53.5287 24.01 53.5859C23.9049 53.6432 23.7863 53.671 23.6667 53.6667C23.5471 53.671 23.4285 53.6432 23.3234 53.5859C23.2183 53.5287 23.1306 53.4442 23.0694 53.3413L19.6294 55.3787C21.432 58.4293 25.9014 58.4293 27.7067 55.3787L24.264 53.3413ZM20.4667 15H26.8667V11H20.4667V15ZM43 31.1333V33.2667H47V31.1333H43ZM4.33338 33.2667V31.1333H0.333376V33.2667H4.33338ZM0.333376 33.2667C0.333376 35.7253 0.333376 37.6667 0.440042 39.24C0.546709 40.8293 0.773376 42.184 1.29871 43.448L4.99204 41.9173C4.70404 41.2213 4.52538 40.352 4.43204 38.968C4.33337 37.5627 4.33338 35.7787 4.33338 33.2667H0.333376ZM13.8347 47.2267C11.7227 47.16 10.5734 46.976 9.68271 46.608L8.15204 50.3013C9.74404 50.9627 11.4987 51.1547 13.7067 51.2267L13.8347 47.2267ZM1.29871 43.448C2.58427 46.5507 5.04939 49.0158 8.15204 50.3013L9.68271 46.608C8.63089 46.1722 7.67526 45.5333 6.87042 44.728C6.06558 43.9227 5.42729 42.9694 4.99204 41.9173L1.29871 43.448ZM43 33.2667C43 35.7787 43 37.5627 42.904 38.968C42.808 40.3547 42.6294 41.2213 42.3414 41.9173L46.0347 43.448C46.56 42.184 46.784 40.8293 46.8934 39.24C47 37.6667 47 35.7253 47 33.2667H43ZM33.6267 51.2267C35.8347 51.1547 37.5894 50.96 39.1814 50.3013L37.6507 46.608C36.7574 46.976 35.6107 47.16 33.4987 47.2267L33.6267 51.2267ZM42.3414 41.9173C41.9055 42.9692 41.2667 43.9248 40.4614 44.7296C39.6561 45.5345 38.7001 46.1728 37.648 46.608L39.1814 50.3013C42.284 49.0158 44.7491 46.5507 46.0347 43.448L42.3414 41.9173ZM26.8667 15C30.3974 15 32.904 15 34.8534 15.1867C36.7734 15.3707 37.9467 15.7173 38.8614 16.2773L40.952 12.8667C39.3014 11.8533 37.4454 11.416 35.232 11.2053C33.0507 10.9973 30.32 11 26.8667 11V15ZM47 31.1333C47 27.68 47 24.9493 46.7947 22.768C46.584 20.5547 46.144 18.7013 45.1334 17.0507L41.7227 19.1387C42.2827 20.0533 42.6294 21.2267 42.8134 23.1467C43 25.0933 43 27.6027 43 31.1333H47ZM38.8614 16.2773C40.0276 16.992 41.0081 17.9725 41.7227 19.1387L45.1334 17.0507C44.089 15.3465 42.6562 13.911 40.952 12.8667L38.8614 16.2773ZM20.4667 11C17.0134 11 14.2827 11 12.1014 11.2053C9.88804 11.416 8.03204 11.856 6.38138 12.8667L8.47204 16.2773C9.38671 15.7173 10.56 15.3707 12.48 15.1867C14.4267 15 16.936 15 20.4667 15V11ZM4.33338 31.1333C4.33338 27.6027 4.33337 25.096 4.52004 23.1467C4.70404 21.2267 5.05071 20.0533 5.61071 19.1387L2.20004 17.048C1.18671 18.6987 0.749376 20.5547 0.538709 22.768C0.330709 24.9493 0.333376 27.68 0.333376 31.1333H4.33338ZM6.38138 12.8667C4.67723 13.911 3.24441 15.3439 2.20004 17.048L5.61071 19.1387C6.32534 17.9725 7.30584 16.992 8.47204 16.2773L6.38138 12.8667ZM22.3787 52.1733C21.8427 51.2667 21.3734 50.472 20.9174 49.8427C20.4479 49.155 19.8392 48.5735 19.1307 48.136L17.0934 51.5813C17.216 51.6533 17.3867 51.7867 17.68 52.1947C18 52.6347 18.3627 53.2427 18.9334 54.2107L22.3787 52.1733ZM13.7067 51.2267C14.896 51.264 15.6534 51.2907 16.232 51.36C16.776 51.4267 16.9814 51.5147 17.0934 51.5813L19.128 48.1387C18.3547 47.6827 17.544 47.4907 16.7147 47.392C15.92 47.2933 14.952 47.264 13.8347 47.2267L13.7067 51.2267ZM28.4 54.2107C28.9707 53.2427 29.3334 52.6347 29.6534 52.1947C29.9467 51.7867 30.1174 51.6533 30.24 51.5813L28.2054 48.1387C27.4969 48.5762 26.8882 49.1576 26.4187 49.8453C25.96 50.472 25.4907 51.2693 24.9547 52.1733L28.4 54.2107ZM33.4987 47.2267C32.3814 47.264 31.4134 47.2933 30.6187 47.3893C29.792 47.4907 28.976 47.6853 28.2054 48.1387L30.24 51.5813C30.352 51.5147 30.5574 51.4267 31.1014 51.36C31.6774 51.2907 32.4374 51.264 33.6267 51.2267L33.4987 47.2267Z" fill="black"/>
<path d="M32.6667 4.33057H38.6667V0.330566H32.6667V4.33057ZM53.6667 19.3306V21.3306H57.6667V19.3306H53.6667ZM53.6667 21.3306C53.6667 23.6879 53.6667 25.3572 53.576 26.6639C53.488 27.9599 53.32 28.7572 53.0587 29.3919L56.752 30.9226C57.2507 29.7199 57.464 28.4346 57.5653 26.9386C57.6667 25.4612 57.6667 23.6319 57.6667 21.3306H53.6667ZM53.0587 29.3919C52.6566 30.3628 52.0672 31.245 51.3242 31.9881C50.5811 32.7311 49.6989 33.3205 48.728 33.7226L50.2587 37.4186C51.7145 36.8152 53.0373 35.931 54.1514 34.8164C55.2656 33.7018 56.1492 32.3787 56.752 30.9226L53.0587 29.3919ZM38.6667 4.33057C41.9787 4.33057 44.32 4.33323 46.144 4.50923C47.9333 4.6799 49.0107 4.9999 49.8453 5.5119L51.936 2.10123C50.368 1.14123 48.6053 0.725233 46.5227 0.5279C44.4693 0.330566 41.9013 0.333233 38.6667 0.333233V4.33057ZM57.6667 19.3332C57.6667 16.0986 57.6667 13.5332 57.472 11.4772C57.2747 9.39457 56.8587 7.6319 55.8987 6.0639L52.4853 8.15457C53 8.98923 53.32 10.0666 53.4907 11.8559C53.664 13.6772 53.6667 16.0212 53.6667 19.3332H57.6667ZM49.8453 5.5119C50.9212 6.17137 51.8259 7.07867 52.4853 8.15457L55.8987 6.0639C54.9083 4.44846 53.5521 3.09052 51.936 2.10123L49.8453 5.5119ZM32.6667 0.333233C29.432 0.333233 26.8667 0.333233 24.8107 0.525233C22.728 0.725233 20.9653 1.13857 19.3973 2.10123L21.4853 5.51457C22.3227 4.9999 23.4 4.6799 25.192 4.50923C27.0107 4.3359 29.352 4.33057 32.6667 4.33057V0.333233ZM19.3973 2.10123C17.7819 3.09161 16.4239 4.45047 15.4347 6.06657L18.8453 8.15723C19.5048 7.08133 20.4094 6.17403 21.4853 5.51457L19.3973 2.10123ZM17.752 13.1066C17.8853 10.5466 18.2187 9.17857 18.8453 8.15723L15.4347 6.06657C14.2693 7.9679 13.8987 10.1679 13.7573 12.8986L17.752 13.1066ZM45.0667 38.2959C47.112 38.2266 48.7573 38.0452 50.2587 37.4239L48.728 33.7279C47.9227 34.0612 46.8773 34.2346 44.9333 34.2986L45.0667 38.2959Z" fill="black"/>
<path d="M14.36 31.6665H14.3813M23.6667 31.6665H23.6907M32.976 31.6665H33" stroke="black" stroke-width="2" stroke-linecap="round" stroke-linejoin="round"/>
</svg>
