<?xml version="1.0" encoding="iso-8859-1"?>
<!-- Uploaded to: SVG Repo, www.svgrepo.com, Generator: SVG Repo Mixer Tools -->
<svg fill="#000000" version="1.1" id="Layer_1" xmlns="http://www.w3.org/2000/svg" xmlns:xlink="http://www.w3.org/1999/xlink" 
	 viewBox="0 0 512 512" xml:space="preserve">
<g>
	<g>
		<path d="M318.27,265.278v-69.189l-152.216,69.189v-99.224H41.513V512h428.973V196.089L318.27,265.278z M124.541,470.487H83.027
			V207.568h41.513V470.487z M428.973,470.487H166.054V310.879l110.703-50.32v69.189l152.216-69.189V470.487z"/>
	</g>
</g>
<g>
	<g>
		<rect x="235.243" y="387.459" width="41.514" height="41.513"/>
	</g>
</g>
<g>
	<g>
		<rect x="318.27" y="387.459" width="41.514" height="41.513"/>
	</g>
</g>
<g>
	<g>
		<path d="M463.568,41.513c-16.539,0-23.854-6.27-34.925-15.76C415.256,14.279,398.595,0,366.7,0
			c-31.895,0-48.556,14.279-61.942,25.754c-11.073,9.49-18.388,15.76-34.925,15.76c-16.538,0-23.852-6.27-34.923-15.76
			C221.523,14.281,204.864,0.001,172.973,0c-49.596,0-89.946,40.35-89.946,89.946v34.595h41.513V89.946
			c0-26.706,21.727-48.432,48.431-48.432c16.535,0,23.849,6.27,34.92,15.76c13.387,11.474,30.046,25.754,61.941,25.754
			c31.895,0,48.556-14.279,61.942-25.754c11.072-9.49,18.386-15.76,34.925-15.76c16.539,0,23.854,6.27,34.925,15.76
			c13.387,11.474,30.047,25.754,61.942,25.754h6.919V41.513H463.568z"/>
	</g>
</g>
</svg>