<svg width="52" height="52" viewBox="0 0 52 52" fill="none" xmlns="http://www.w3.org/2000/svg">
<path fill-rule="evenodd" clip-rule="evenodd" d="M26.963 0C40.7681 0 52.0001 11.2419 52.0001 25.0612C52.0001 25.5932 51.5687 26.0251 51.0371 26.0251C50.5056 26.0251 50.0742 25.5932 50.0742 25.0612C50.0742 12.305 39.7059 1.92778 26.963 1.92778C26.4315 1.92778 26 1.49596 26 0.963891C26 0.431823 26.4315 0 26.963 0ZM26.963 5.78335C37.5825 5.78335 46.2223 14.4314 46.2223 25.0612C46.2223 25.5932 45.7909 26.0251 45.2593 26.0251C44.7277 26.0251 44.2963 25.5932 44.2963 25.0612C44.2963 15.4946 36.5204 7.71113 26.963 7.71113C26.4314 7.71113 26 7.27931 26 6.74724C26 6.21517 26.4314 5.78335 26.963 5.78335ZM26.963 17.35C31.2106 17.35 34.6667 20.8094 34.6667 25.0612C34.6667 25.5932 34.2353 26.0251 33.7037 26.0251C33.1722 26.0251 32.7408 25.5932 32.7408 25.0612C32.7408 21.8717 30.1494 19.2778 26.963 19.2778C26.4314 19.2778 26 18.846 26 18.3139C26 17.7819 26.4314 17.35 26.963 17.35ZM26.963 11.5667C34.3971 11.5667 40.4445 17.6199 40.4445 25.0612C40.4445 25.5932 40.0131 26.0251 39.4815 26.0251C38.95 26.0251 38.5185 25.5932 38.5185 25.0612C38.5185 18.6831 33.3349 13.4945 26.963 13.4945C26.4314 13.4945 26 13.0627 26 12.5306C26 11.9985 26.4314 11.5667 26.963 11.5667ZM9.23185 3.90569C10.7302 3.90569 12.1179 4.58427 13.0375 5.76696L18.0468 12.2086C19.4142 13.9677 19.4046 16.416 18.0256 18.1636L16.8951 19.5959C15.9851 20.7487 16.0814 22.4018 17.1195 23.4409L28.6317 34.9642C29.6428 35.9763 31.3473 36.0775 32.473 35.1888L33.903 34.0572C35.5882 32.7251 38.1583 32.7154 39.8522 34.035L46.2887 39.0501C47.3787 39.8983 48.0528 41.1774 48.1385 42.5577C48.2242 43.938 47.7129 45.2913 46.7364 46.2687L42.6255 50.3836C41.9196 51.0911 40.6228 51.9271 38.4124 51.9955L38.1179 52L37.8473 51.9963C33.7611 51.884 26.4832 49.2006 14.6899 37.3951C7.52259 30.2209 2.9148 23.9941 0.995612 18.8875C-1.08054 13.3663 0.554574 10.5941 1.71398 9.43361L5.82584 5.31875C6.73584 4.40788 7.94533 3.90569 9.23185 3.90569ZM9.232 5.83347C8.46066 5.83347 7.73459 6.13517 7.18762 6.6817L3.07576 10.7965C1.64095 12.2337 1.54176 14.8661 2.79843 18.2089C4.62036 23.0563 9.07985 29.0536 16.0517 36.0322L16.8154 36.7899C28.1642 47.9515 34.7453 49.9492 37.822 50.0665L38.119 50.0722C39.8495 50.0722 40.7845 49.5006 41.2631 49.0206L45.375 44.9058C45.9614 44.3188 46.2676 43.5062 46.2166 42.6772C46.1646 41.8483 45.7601 41.081 45.1053 40.5712L38.6698 35.557C37.6443 34.7579 36.116 34.7637 35.0982 35.5695L33.6663 36.7011C32.8189 37.371 31.7586 37.7402 30.6791 37.7402C29.3907 37.7412 28.1803 37.239 27.2703 36.3271L15.758 24.8038C14.0285 23.0736 13.8677 20.3208 15.3844 18.4007L16.5139 16.9683C17.343 15.9187 17.3479 14.4487 16.5274 13.3933L11.5181 6.95062C10.9653 6.24023 10.1324 5.83347 9.232 5.83347Z" fill="black"/>
</svg>
