<svg width="24" height="24" viewBox="0 0 24 24" fill="none" xmlns="http://www.w3.org/2000/svg">
<path d="M15.7998 15.4998C16.72 14.9883 16.6008 13.0173 15.5343 11.0943C15.0768 10.2663 14.5143 9.59584 13.9518 9.12709C13.2792 9.62627 12.4644 9.89698 11.6268 9.89959C10.7879 9.89773 9.97172 9.62698 9.29804 9.12709C8.73554 9.59584 8.17454 10.2671 7.71554 11.0943C6.64829 13.0166 6.53054 14.9883 7.45304 15.4998C7.86404 15.7338 8.29754 15.5583 8.74454 15.1278C8.66086 15.5917 8.61894 16.062 8.61929 16.5333C8.61929 18.7368 9.47429 20.5173 10.5265 20.5173C11.161 20.5173 11.4753 19.8686 11.626 18.8763C11.776 19.8618 12.091 20.5173 12.721 20.5173C13.7688 20.5173 14.6305 18.7361 14.6305 16.5333C14.6305 16.0383 14.584 15.5658 14.5045 15.1286C14.9545 15.5598 15.3865 15.7383 15.799 15.5013L15.7998 15.4998ZM11.6253 9.14959C12.0508 9.15594 12.4734 9.0776 12.8683 8.91912C13.2633 8.76064 13.6228 8.52519 13.9259 8.22646C14.229 7.92774 14.4697 7.57171 14.6339 7.1791C14.7981 6.78649 14.8826 6.36514 14.8825 5.93957C14.8823 5.514 14.7975 5.09271 14.633 4.70021C14.4685 4.30772 14.2276 3.95186 13.9243 3.65335C13.621 3.35484 13.2613 3.11964 12.8662 2.96143C12.4712 2.80323 12.0486 2.72518 11.623 2.73184C10.7805 2.74501 9.97693 3.08903 9.38587 3.68962C8.79481 4.29021 8.46367 5.09917 8.46397 5.94182C8.46426 6.78447 8.79596 7.5932 9.38745 8.19337C9.97893 8.79354 10.7827 9.137 11.6253 9.14959ZM18.0708 11.1851C18.7561 11.1651 19.4067 10.8787 19.8844 10.3869C20.3621 9.89501 20.6293 9.23636 20.6293 8.55071C20.6293 7.86507 20.3621 7.20641 19.8844 6.71456C19.4067 6.2227 18.7561 5.93637 18.0708 5.91634C17.3719 5.91644 16.7017 6.19416 16.2076 6.68841C15.7135 7.18267 15.4359 7.85296 15.436 8.55184C15.4361 9.25072 15.7139 9.92093 16.2081 10.415C16.7024 10.9092 17.3727 11.1867 18.0715 11.1866L18.0708 11.1851ZM21.2808 12.7826C20.9043 12.1016 20.4438 11.5511 19.9818 11.1663C19.4292 11.5758 18.7601 11.7979 18.0723 11.8001C17.5053 11.8001 16.9773 11.6448 16.5153 11.3876C16.8873 12.2073 17.1175 13.0376 17.1603 13.7801C17.2308 14.9171 16.8753 15.7601 16.1643 16.1538C16.0119 16.2376 15.8462 16.2944 15.6745 16.3218C15.6318 16.6158 15.6025 16.9218 15.6025 17.2443C15.6025 19.0541 16.3038 20.5158 17.1685 20.5158C17.689 20.5158 17.9485 19.9833 18.0715 19.1688C18.1938 19.9788 18.4525 20.5158 18.9715 20.5158C19.8303 20.5158 20.539 19.0533 20.539 17.2458C20.539 16.8386 20.4993 16.4508 20.434 16.0908C20.803 16.4456 21.1585 16.5918 21.4975 16.3968C22.2528 15.9768 22.1553 14.3583 21.28 12.7818L21.2808 12.7826ZM5.17979 11.1851C5.70069 11.1848 6.20979 11.0301 6.64276 10.7404C7.07572 10.4508 7.41309 10.0394 7.61222 9.55804C7.81135 9.07671 7.8633 8.54715 7.7615 8.0363C7.6597 7.52545 7.40871 7.05626 7.04028 6.68804C6.67185 6.31982 6.20252 6.0691 5.69161 5.96759C5.18071 5.86608 4.65117 5.91833 4.16996 6.11773C3.68875 6.31714 3.27746 6.65474 2.9881 7.08787C2.69874 7.521 2.54429 8.0302 2.54429 8.55109C2.54449 9.25 2.82222 9.92024 3.31643 10.4144C3.81064 10.9087 4.48088 11.1864 5.17979 11.1866V11.1851ZM7.08104 16.1516C5.88704 15.4878 5.77754 13.5086 6.73904 11.3861C6.26379 11.6559 5.72704 11.7987 5.18054 11.8008C4.46354 11.8008 3.80654 11.5608 3.26804 11.1663C2.80679 11.5503 2.34704 12.1008 1.96904 12.7811C1.09379 14.3591 0.997794 15.9776 1.75379 16.3961C2.09129 16.5896 2.44754 16.4448 2.81429 16.0916C2.74693 16.4724 2.71305 16.8584 2.71304 17.2451C2.71304 19.0541 3.41429 20.5151 4.27904 20.5151C4.79954 20.5151 5.05904 19.9826 5.18204 19.1688C5.30579 19.9788 5.56454 20.5158 6.08204 20.5158C6.94229 20.5158 7.64954 19.0533 7.64954 17.2458C7.64954 16.9211 7.61954 16.6143 7.57679 16.3203C7.40321 16.293 7.23572 16.2356 7.08179 16.1508L7.08104 16.1516Z" fill="white"/>
</svg>
