<svg width="52" height="41" viewBox="0 0 52 41" fill="none" xmlns="http://www.w3.org/2000/svg">
<path fill-rule="evenodd" clip-rule="evenodd" d="M49.4 41H2.6C1.16653 41 0 39.8503 0 38.4375V2.5625C0 1.14971 1.16653 0 2.6 0H49.4C50.8335 0 52 1.14971 52 2.5625V38.4375C52 39.8503 50.8335 41 49.4 41ZM50.2667 2.56256C50.2667 2.09106 49.8785 1.7084 49.4001 1.7084H2.60007C2.12167 1.7084 1.7334 2.09106 1.7334 2.56256V38.4376C1.7334 38.9091 2.12167 39.2917 2.60007 39.2917H49.4001C49.8785 39.2917 50.2667 38.9091 50.2667 38.4376V2.56256ZM45.9332 35.8751H35.5332C35.0539 35.8751 34.6665 35.4933 34.6665 35.0209C34.6665 34.5486 35.0539 34.1667 35.5332 34.1667H45.9332C46.4124 34.1667 46.7998 34.5486 46.7998 35.0209C46.7998 35.4933 46.4124 35.8751 45.9332 35.8751ZM45.9335 29.0417H32.0669C31.5876 29.0417 31.2002 28.6599 31.2002 28.1876C31.2002 27.7152 31.5876 27.3334 32.0669 27.3334H45.9335C46.4128 27.3334 46.8002 27.7152 46.8002 28.1876C46.8002 28.6599 46.4128 29.0417 45.9335 29.0417ZM45.9335 25.6249H32.0669C31.5876 25.6249 31.2002 25.2431 31.2002 24.7708C31.2002 24.2984 31.5876 23.9166 32.0669 23.9166H45.9335C46.4128 23.9166 46.8002 24.2984 46.8002 24.7708C46.8002 25.2431 46.4128 25.6249 45.9335 25.6249ZM45.9335 22.2084H32.0669C31.5876 22.2084 31.2002 21.8266 31.2002 21.3542C31.2002 20.8819 31.5876 20.5 32.0669 20.5H45.9335C46.4128 20.5 46.8002 20.8819 46.8002 21.3542C46.8002 21.8266 46.4128 22.2084 45.9335 22.2084ZM45.9335 18.7916H32.0669C31.5876 18.7916 31.2002 18.4098 31.2002 17.9374C31.2002 17.4651 31.5876 17.0833 32.0669 17.0833H45.9335C46.4128 17.0833 46.8002 17.4651 46.8002 17.9374C46.8002 18.4098 46.4128 18.7916 45.9335 18.7916ZM45.9335 15.375H32.0669C31.5876 15.375 31.2002 14.9932 31.2002 14.5209C31.2002 14.0485 31.5876 13.6667 32.0669 13.6667H45.9335C46.4128 13.6667 46.8002 14.0485 46.8002 14.5209C46.8002 14.9932 46.4128 15.375 45.9335 15.375ZM45.9335 11.9582H32.0669C31.5876 11.9582 31.2002 11.5764 31.2002 11.1041C31.2002 10.6317 31.5876 10.2499 32.0669 10.2499H45.9335C46.4128 10.2499 46.8002 10.6317 46.8002 11.1041C46.8002 11.5764 46.4128 11.9582 45.9335 11.9582ZM40.7335 8.54168H32.0669C31.5876 8.54168 31.2002 8.15987 31.2002 7.68752C31.2002 7.21516 31.5876 6.83335 32.0669 6.83335H40.7335C41.2128 6.83335 41.6002 7.21516 41.6002 7.68752C41.6002 8.15987 41.2128 8.54168 40.7335 8.54168ZM30.3336 35.8751H19.9336C19.4543 35.8751 19.0669 35.4933 19.0669 35.0209C19.0669 34.5486 19.4543 34.1667 19.9336 34.1667H30.3336C30.8128 34.1667 31.2002 34.5486 31.2002 35.0209C31.2002 35.4933 30.8128 35.8751 30.3336 35.8751ZM16.4669 29.0417C13.6589 29.0417 10.9679 28.0201 8.89046 26.164C6.5444 24.0534 5.2002 21.0561 5.2002 17.9375C5.2002 11.8148 10.2546 6.83335 16.4669 6.83335C22.6791 6.83335 27.7335 11.8148 27.7335 17.9375C27.7335 21.2619 26.2411 24.3848 23.6403 26.5048C21.6201 28.1414 19.0738 29.0417 16.4669 29.0417ZM21.8883 25.6677C21.1369 25.209 20.1013 24.8426 18.9174 24.6393C18.244 24.5223 17.7526 23.932 17.776 23.2641C17.7933 22.9822 17.7925 22.7106 17.7925 22.4304C17.7925 21.9017 18.0369 21.4319 18.2743 20.9783C18.4641 20.6153 18.66 20.2395 18.6773 19.9166C18.6834 19.8039 18.712 19.6945 18.7605 19.5929C18.9789 19.1436 19.1098 18.6909 19.1098 18.3808C19.1098 18.3578 19.1089 18.3407 19.1072 18.3261C18.9451 18.1314 18.8775 17.8751 18.9261 17.624C18.9668 17.4165 19.0032 17.1995 19.0413 16.9791L19.1228 16.5068C19.4062 14.9496 18.6288 14.4815 18.0187 14.2646C17.9346 14.2373 17.7673 14.1971 17.5602 14.1459C16.8599 13.9733 16.1501 13.7854 15.5365 13.5317C15.4603 13.8734 15.2991 14.174 14.9299 14.3312C13.9081 14.7831 13.6013 15.3741 13.8093 16.5034L13.8916 16.9791C13.9297 17.1995 13.9661 17.4165 14.0069 17.624C14.0554 17.8751 13.9878 18.1314 13.8257 18.3261C13.824 18.3407 13.8231 18.3578 13.8231 18.3808C13.8231 18.6909 13.9531 19.1436 14.1715 19.5929C14.2209 19.6945 14.2487 19.8039 14.2556 19.9166C14.2721 20.2292 14.4532 20.57 14.6447 20.9322C14.8883 21.3926 15.1405 21.8675 15.1405 22.4304C15.1405 22.7106 15.1396 22.9822 15.1561 23.2376C15.1803 23.932 14.6889 24.5223 14.0164 24.6393C12.8351 24.8417 11.8003 25.2073 11.0498 25.6643C12.6341 26.7414 14.5139 27.3333 16.4665 27.3333C18.4017 27.3333 20.298 26.7457 21.8883 25.6677ZM16.4664 8.54175C11.2092 8.54175 6.93311 12.7562 6.93311 17.9376C6.93311 20.4027 7.93584 22.7705 9.68391 24.5283C10.6069 23.8441 11.8922 23.3086 13.4114 23.0113C13.4071 22.8277 13.4071 22.6312 13.4071 22.4305C13.4071 22.287 13.2407 21.9735 13.1081 21.7232C12.8862 21.303 12.615 20.7905 12.5404 20.1866C12.3212 19.7049 12.0898 19.0412 12.0898 18.3809C12.0898 18.0871 12.1409 17.8274 12.2423 17.6053C12.2215 17.4926 12.2024 17.3781 12.1834 17.2628L12.1036 16.8058C11.7795 15.0428 12.3723 13.7453 13.869 12.9441C13.8742 12.8672 13.8786 12.7878 13.882 12.7263C13.9089 12.1967 13.9392 11.5971 14.5381 11.3648C14.8553 11.2418 15.2921 11.3417 15.5356 11.5749C15.975 11.9943 17.3296 12.3283 17.9814 12.4889C18.2483 12.5555 18.4632 12.6101 18.5906 12.652C20.3838 13.2892 21.1941 14.8011 20.8292 16.8075L20.7495 17.2628C20.7304 17.3781 20.7105 17.4926 20.6906 17.6053C20.792 17.8274 20.8431 18.0871 20.8431 18.3809C20.8431 19.0412 20.6117 19.7049 20.3924 20.1866C20.317 20.799 20.0414 21.3278 19.8161 21.7591C19.7 21.9804 19.5258 22.3152 19.5258 22.4305C19.5258 22.6287 19.5258 22.8234 19.5206 23.0113C21.0433 23.3086 22.332 23.8459 23.255 24.5326C25.0074 22.7807 25.9998 20.4275 25.9998 17.9376C25.9998 12.7562 21.7228 8.54175 16.4664 8.54175ZM6.06686 34.1667H14.7335C15.2128 34.1667 15.6002 34.5486 15.6002 35.0209C15.6002 35.4933 15.2128 35.8751 14.7335 35.8751H6.06686C5.5876 35.8751 5.2002 35.4933 5.2002 35.0209C5.2002 34.5486 5.5876 34.1667 6.06686 34.1667Z" fill="black"/>
</svg>
