<svg width="24" height="24" viewBox="0 0 24 24" fill="white" xmlns="http://www.w3.org/2000/svg">
<path fill-rule="evenodd" clip-rule="evenodd" d="M3 5.983C3 4.888 3.895 4 5 4H19C20.105 4 21 4.888 21 5.983V14.906C20.9976 15.4341 20.7856 15.9397 20.4106 16.3116C20.0355 16.6834 19.5281 16.8911 19 16.889H12.4L9.533 19.589C8.578 20.488 7 19.817 7 18.509V16.889H5C3.895 16.889 3 16.001 3 14.906V5.983ZM8.706 9.792C8.61296 9.69929 8.50257 9.62581 8.38113 9.57576C8.25969 9.52571 8.12958 9.50007 7.99823 9.5003C7.86688 9.50053 7.73687 9.52663 7.61561 9.57711C7.49434 9.62759 7.38421 9.70146 7.2915 9.7945C7.19879 9.88754 7.12531 9.99793 7.07526 10.1194C7.02521 10.2408 6.99957 10.3709 6.9998 10.5023C7.00003 10.6336 7.02613 10.7636 7.07661 10.8849C7.12709 11.0062 7.20096 11.1163 7.294 11.209C7.38704 11.3017 7.49743 11.3752 7.61887 11.4252C7.74031 11.4753 7.87042 11.5009 8.00177 11.5007C8.13312 11.5005 8.26313 11.4744 8.38439 11.4239C8.50565 11.3734 8.61579 11.2995 8.7085 11.2065C8.80121 11.1135 8.87469 11.0031 8.92474 10.8816C8.97479 10.7602 9.00043 10.6301 9.0002 10.4987C8.99997 10.3674 8.97387 10.2374 8.92339 10.1161C8.87291 9.99484 8.79904 9.88471 8.706 9.792ZM11.291 9.794C11.4305 9.65382 11.6085 9.55817 11.8024 9.51915C11.9963 9.48013 12.1975 9.49949 12.3804 9.57478C12.5633 9.65007 12.7197 9.77791 12.83 9.94214C12.9402 10.1064 12.9993 10.2996 12.9997 10.4974C13.0001 10.6952 12.9419 10.8886 12.8323 11.0533C12.7228 11.218 12.5669 11.3465 12.3843 11.4226C12.2017 11.4987 12.0007 11.5189 11.8066 11.4807C11.6125 11.4425 11.4341 11.3476 11.294 11.208C11.1061 11.0209 11.0003 10.7668 10.9997 10.5016C10.9992 10.2365 11.1039 9.98193 11.291 9.794ZM16.706 9.792C16.5181 9.60476 16.2635 9.49983 15.9982 9.5003C15.733 9.50077 15.4787 9.60659 15.2915 9.7945C15.1043 9.98241 14.9993 10.237 14.9998 10.5023C15.0003 10.7675 15.1061 11.0218 15.294 11.209C15.387 11.3017 15.4974 11.3752 15.6189 11.4252C15.7403 11.4753 15.8704 11.5009 16.0018 11.5007C16.1331 11.5005 16.2631 11.4744 16.3844 11.4239C16.5057 11.3734 16.6158 11.2995 16.7085 11.2065C16.8012 11.1135 16.8747 11.0031 16.9247 10.8816C16.9748 10.7602 17.0004 10.6301 17.0002 10.4987C17 10.3674 16.9739 10.2374 16.9234 10.1161C16.8729 9.99484 16.799 9.88471 16.706 9.792Z"/>
</svg>
