<svg width="20" height="20" viewBox="0 0 20 20" fill="white" xmlns="http://www.w3.org/2000/svg">
<path d="M8.99876 4.0001H11.9988L15.2888 0.700095C15.3817 0.606367 15.4923 0.531972 15.6142 0.481204C15.736 0.430435 15.8667 0.404297 15.9988 0.404297C16.1308 0.404297 16.2615 0.430435 16.3833 0.481204C16.5052 0.531972 16.6158 0.606367 16.7088 0.700095L19.2888 3.2901C19.475 3.47746 19.5796 3.73091 19.5796 3.9951C19.5796 4.25928 19.475 4.51273 19.2888 4.7001L16.9988 7.0001H8.99876V9.0001C8.99876 9.26531 8.8934 9.51967 8.70587 9.7072C8.51833 9.89474 8.26398 10.0001 7.99876 10.0001C7.73354 10.0001 7.47919 9.89474 7.29165 9.7072C7.10412 9.51967 6.99876 9.26531 6.99876 9.0001V6.0001C6.99876 5.46966 7.20948 4.96095 7.58455 4.58588C7.95962 4.21081 8.46833 4.0001 8.99876 4.0001ZM2.99876 9.0001V13.0001L0.708761 15.2901C0.522511 15.4775 0.417969 15.7309 0.417969 15.9951C0.417969 16.2593 0.522511 16.5127 0.708761 16.7001L3.28876 19.2901C3.38172 19.3838 3.49233 19.4582 3.61418 19.509C3.73604 19.5598 3.86675 19.5859 3.99876 19.5859C4.13077 19.5859 4.26148 19.5598 4.38334 19.509C4.5052 19.4582 4.6158 19.3838 4.70876 19.2901L8.99876 15.0001H12.9988C13.264 15.0001 13.5183 14.8947 13.7059 14.7072C13.8934 14.5197 13.9988 14.2653 13.9988 14.0001V13.0001H14.9988C15.264 13.0001 15.5183 12.8947 15.7059 12.7072C15.8934 12.5197 15.9988 12.2653 15.9988 12.0001V11.0001H16.9988C17.264 11.0001 17.5183 10.8947 17.7059 10.7072C17.8934 10.5197 17.9988 10.2653 17.9988 10.0001V9.0001H10.9988V10.0001C10.9988 10.5305 10.788 11.0392 10.413 11.4143C10.0379 11.7894 9.52919 12.0001 8.99876 12.0001H6.99876C6.46833 12.0001 5.95962 11.7894 5.58455 11.4143C5.20948 11.0392 4.99876 10.5305 4.99876 10.0001V7.0001L2.99876 9.0001Z" />
</svg>
