<svg width="44" height="40" viewBox="0 0 44 40" fill="none" xmlns="http://www.w3.org/2000/svg">
<path d="M39.3332 9.16667V4.83333C39.3332 2.4435 37.3897 0.5 34.9999 0.5H6.83325C3.24958 0.5 0.333252 3.41633 0.333252 7V33C0.333252 37.7688 4.22025 39.5 6.83325 39.5H39.3332C41.7231 39.5 43.6666 37.5565 43.6666 35.1667V13.5C43.6666 11.1102 41.7231 9.16667 39.3332 9.16667ZM6.83325 4.83333H34.9999V9.16667H6.83325C6.27538 9.14171 5.74863 8.90254 5.36268 8.49894C4.97674 8.09534 4.76134 7.55843 4.76134 7C4.76134 6.44157 4.97674 5.90466 5.36268 5.50106C5.74863 5.09747 6.27538 4.85829 6.83325 4.83333ZM39.3332 35.1667H6.85925C5.85825 35.1407 4.66658 34.7442 4.66658 33V13.0992C5.34692 13.344 6.06842 13.5 6.83325 13.5H39.3332V35.1667Z" fill="black"/>
</svg>
