<svg width="22" height="22" viewBox="0 0 22 22" fill="none" xmlns="http://www.w3.org/2000/svg">
<path d="M20 20L15.657 15.657M15.657 15.657C16.3998 14.9141 16.9891 14.0322 17.3912 13.0615C17.7932 12.0909 18.0002 11.0506 18.0002 9.99999C18.0002 8.94939 17.7932 7.90908 17.3912 6.93845C16.9891 5.96782 16.3998 5.08588 15.657 4.34299C14.9141 3.6001 14.0321 3.01081 13.0615 2.60877C12.0909 2.20672 11.0506 1.99979 9.99996 1.99979C8.94936 1.99979 7.90905 2.20672 6.93842 2.60877C5.96779 3.01081 5.08585 3.6001 4.34296 4.34299C2.84263 5.84332 1.99976 7.87821 1.99976 9.99999C1.99976 12.1218 2.84263 14.1567 4.34296 15.657C5.84329 17.1573 7.87818 18.0002 9.99996 18.0002C12.1217 18.0002 14.1566 17.1573 15.657 15.657Z" stroke="#919191" stroke-width="2.5" stroke-linecap="round" stroke-linejoin="round"/>
</svg>
