<svg width="40" height="40" viewBox="0 0 40 40" fill="none" xmlns="http://www.w3.org/2000/svg">
<path fill-rule="evenodd" clip-rule="evenodd" d="M20 37.3333C29.5734 37.3333 37.3333 29.5734 37.3333 20C37.3333 10.4266 29.5734 2.66667 20 2.66667C10.4266 2.66667 2.66667 10.4266 2.66667 20C2.66667 29.5734 10.4266 37.3333 20 37.3333ZM20 39.5C30.7694 39.5 39.5 30.7694 39.5 20C39.5 9.23058 30.7694 0.5 20 0.5C9.23058 0.5 0.5 9.23058 0.5 20C0.5 30.7694 9.23058 39.5 20 39.5Z" fill="black"/>
<path fill-rule="evenodd" clip-rule="evenodd" d="M17.0599 17.0198C17.1758 17.451 17.218 17.9244 17.0772 18.3122C17.0498 18.3874 17.0062 18.4555 16.9494 18.5117C16.8925 18.568 16.824 18.611 16.7486 18.6376C16.6732 18.6642 16.5928 18.6738 16.5133 18.6657C16.4338 18.6576 16.357 18.6319 16.2885 18.5907C15.9989 18.4081 15.7217 18.2065 15.4587 17.9872L15.2475 17.8139C15.0525 17.6557 14.864 17.5019 14.669 17.3557C14.1251 16.9494 13.694 16.7349 13.3202 16.7533C12.928 16.7728 12.4535 17.0469 11.8447 17.5279C11.6725 17.6633 11.4883 17.8172 11.2976 17.9775C10.8773 18.3285 10.4223 18.7087 9.99005 18.9861C9.91353 19.0353 9.82582 19.0645 9.73504 19.071C9.64425 19.0774 9.55331 19.0608 9.47062 19.0228C9.38792 18.9848 9.31613 18.9266 9.26188 18.8535C9.20762 18.7805 9.17266 18.6949 9.16021 18.6047C9.10605 18.2093 9.18838 17.7153 9.3433 17.2322C9.52009 16.6876 9.77361 16.1711 10.0962 15.6982C10.7679 14.7156 11.8577 13.7893 13.317 13.85C14.7253 13.9096 15.7696 14.7351 16.398 15.6342C16.7143 16.0849 16.9385 16.5692 17.0599 17.0198ZM22.8492 17.0198C22.7322 17.451 22.69 17.9244 22.8308 18.3122C22.8581 18.3875 22.9018 18.4558 22.9587 18.5122C23.0156 18.5685 23.0843 18.6116 23.1598 18.6382C23.2354 18.6648 23.3159 18.6744 23.3955 18.6662C23.4752 18.6579 23.552 18.6321 23.6205 18.5907C23.9044 18.4195 24.185 18.2007 24.4493 17.9872L24.6616 17.8139C24.8566 17.6557 25.0451 17.5019 25.2401 17.3557C25.7829 16.9494 26.2151 16.7349 26.5878 16.7533C26.981 16.7728 27.4545 17.0469 28.0644 17.5279C28.2355 17.6633 28.4197 17.8172 28.6115 17.9775C29.0307 18.3285 29.4857 18.7087 29.919 18.9861C29.9955 19.0351 30.0831 19.0641 30.1738 19.0704C30.2644 19.0767 30.3552 19.0601 30.4377 19.0221C30.5203 18.9841 30.5919 18.926 30.6461 18.8531C30.7003 18.7801 30.7353 18.6947 30.7478 18.6047C30.802 18.2093 30.7196 17.7153 30.5658 17.2322C30.389 16.6876 30.1355 16.1711 29.8129 15.6982C29.1412 14.7156 28.0503 13.7893 26.591 13.85C25.1827 13.9096 24.1395 14.7351 23.51 15.6342C23.2124 16.055 22.9889 16.5237 22.8492 17.0198ZM20 34.0834C15.6255 34.0834 11.8339 30.7814 9.97055 25.9584C9.95231 25.9119 9.93426 25.8653 9.91638 25.8187C9.43321 24.5284 10.4667 23.2501 11.8458 23.2501H28.1554C29.5345 23.2501 30.569 24.5284 30.0837 25.8187C30.0662 25.8653 30.0485 25.9119 30.0306 25.9584C28.1662 30.7814 24.3745 34.0834 20 34.0834ZM27.8824 25.4947C27.5574 26.2834 27.1793 27.0071 26.7611 27.6614H13.239C12.8614 27.0688 12.5307 26.4476 12.2499 25.8035V25.4947H27.8824Z" fill="black"/>
<path fill-rule="evenodd" clip-rule="evenodd" d="M27.8778 29.828C28.1237 29.5084 28.3588 29.1748 28.582 28.8281C29.1876 27.8811 29.6906 26.8722 30.0824 25.8186C30.4973 24.7168 29.8029 23.6227 28.7315 23.3269C28.5434 23.2754 28.3491 23.2495 28.1541 23.25H11.8456C11.6505 23.2499 11.4562 23.2761 11.2681 23.328C10.78 23.4596 10.3579 23.7672 10.083 24.1914C9.92886 24.4303 9.83349 24.7023 9.80468 24.9851C9.77587 25.2679 9.81444 25.5535 9.91723 25.8186C10.0267 26.1066 10.143 26.3919 10.2661 26.6744C10.6019 27.4382 10.9876 28.1586 11.4176 28.8281C11.6408 29.1748 11.8759 29.5084 12.1218 29.8269C14.152 32.4605 16.9318 34.0833 19.9998 34.0833C23.0667 34.0833 25.8476 32.4605 27.8778 29.828ZM27.8821 25.4947C27.5729 26.2485 27.1977 26.9735 26.7609 27.6613H13.2387C12.8612 27.0687 12.5305 26.4475 12.2496 25.8034V25.4947H27.8821Z" fill="black"/>
</svg>
