<svg width="48" height="48" viewBox="0 0 48 48" fill="none" xmlns="http://www.w3.org/2000/svg">
<path fill-rule="evenodd" clip-rule="evenodd" d="M44 2.66667H4C3.64638 2.66667 3.30724 2.80714 3.05719 3.05719C2.80714 3.30724 2.66667 3.64638 2.66667 4V44C2.66667 44.3536 2.80714 44.6928 3.05719 44.9428C3.30724 45.1929 3.64638 45.3333 4 45.3333H44C44.3536 45.3333 44.6928 45.1929 44.9428 44.9428C45.1929 44.6928 45.3333 44.3536 45.3333 44V4C45.3333 3.64638 45.1929 3.30724 44.9428 3.05719C44.6928 2.80714 44.3536 2.66667 44 2.66667ZM4 0C2.93913 0 1.92172 0.421427 1.17157 1.17157C0.421427 1.92172 0 2.93913 0 4V44C0 45.0609 0.421427 46.0783 1.17157 46.8284C1.92172 47.5786 2.93913 48 4 48H44C45.0609 48 46.0783 47.5786 46.8284 46.8284C47.5786 46.0783 48 45.0609 48 44V4C48 2.93913 47.5786 1.92172 46.8284 1.17157C46.0783 0.421427 45.0609 0 44 0H4Z" fill="black"/>
<path d="M17.3334 18.6667C17.3334 19.7276 16.9119 20.745 16.1618 21.4952C15.4117 22.2453 14.3942 22.6667 13.3334 22.6667C12.2725 22.6667 11.2551 22.2453 10.5049 21.4952C9.7548 20.745 9.33337 19.7276 9.33337 18.6667C9.33337 17.6059 9.7548 16.5885 10.5049 15.8383C11.2551 15.0882 12.2725 14.6667 13.3334 14.6667C14.3942 14.6667 15.4117 15.0882 16.1618 15.8383C16.9119 16.5885 17.3334 17.6059 17.3334 18.6667Z" fill="black"/>
<path fill-rule="evenodd" clip-rule="evenodd" d="M8.34137 28.32C8.06137 28.6013 8.00004 28.812 8.00004 28.9693V33.3333H5.33337V28.9693C5.33337 27.9187 5.82671 27.0693 6.44937 26.4413C7.06137 25.8267 7.84937 25.3653 8.63204 25.0227C10.1894 24.3427 12.0374 24 13.3334 24C14.628 24 16.4774 24.3427 18.0347 25.0227C18.8174 25.3653 19.6054 25.8267 20.2174 26.4413C20.8414 27.0693 21.3334 27.9187 21.3334 28.9693V33.3333H18.6667V28.9693C18.6667 28.812 18.604 28.6013 18.3254 28.3213C18.0347 28.028 17.5734 27.732 16.9667 27.4667C15.748 26.9333 14.2627 26.6667 13.3334 26.6667C12.404 26.6667 10.92 26.9333 9.70004 27.4667C9.09337 27.7307 8.63337 28.0267 8.34137 28.32ZM29.6747 28.32C29.3947 28.6013 29.3334 28.812 29.3334 28.9693V33.3333H26.6667V28.9693C26.6667 27.9187 27.16 27.0693 27.7827 26.4413C28.3947 25.8267 29.1827 25.3653 29.9654 25.0227C31.5227 24.3427 33.372 24 34.6667 24C35.9614 24 37.8107 24.3427 39.368 25.0227C40.1507 25.3653 40.9387 25.8267 41.5507 26.4413C42.1747 27.0693 42.6667 27.9187 42.6667 28.9693V33.3333H40V28.9693C40 28.812 39.9374 28.6013 39.6587 28.3213C39.368 28.028 38.9067 27.732 38.3 27.4667C37.0814 26.9333 35.596 26.6667 34.6667 26.6667C33.7374 26.6667 32.2534 26.9333 31.0334 27.4667C30.4267 27.7307 29.9667 28.0267 29.6747 28.32Z" fill="black"/>
<path d="M38.6667 18.6667C38.6667 19.7275 38.2452 20.7449 37.4951 21.4951C36.7449 22.2452 35.7275 22.6667 34.6667 22.6667C33.6058 22.6667 32.5884 22.2452 31.8382 21.4951C31.0881 20.7449 30.6667 19.7275 30.6667 18.6667C30.6667 17.6058 31.0881 16.5884 31.8382 15.8382C32.5884 15.0881 33.6058 14.6667 34.6667 14.6667C35.7275 14.6667 36.7449 15.0881 37.4951 15.8382C38.2452 16.5884 38.6667 17.6058 38.6667 18.6667ZM28 16C28 17.0609 27.5786 18.0783 26.8284 18.8284C26.0783 19.5786 25.0609 20 24 20C22.9391 20 21.9217 19.5786 21.1716 18.8284C20.4214 18.0783 20 17.0609 20 16C20 14.9391 20.4214 13.9217 21.1716 13.1716C21.9217 12.4214 22.9391 12 24 12C25.0609 12 26.0783 12.4214 26.8284 13.1716C27.5786 13.9217 28 14.9391 28 16Z" fill="black"/>
<path fill-rule="evenodd" clip-rule="evenodd" d="M22.2627 25.3267C21.8853 25.3641 21.756 25.4494 21.6613 25.5547L19.672 23.7787C20.372 22.9947 21.2453 22.7467 22.004 22.6721C22.4613 22.6281 23.0293 22.6441 23.4947 22.6561C23.6853 22.6614 23.8587 22.6667 24 22.6667C24.1413 22.6667 24.3147 22.6614 24.5053 22.6561C24.9707 22.6427 25.5387 22.6294 25.996 22.6734C26.756 22.7467 27.628 22.9947 28.328 23.7787L26.3387 25.5547C26.2453 25.4494 26.1147 25.3641 25.7373 25.3281C25.4916 25.3084 25.245 25.3031 24.9987 25.3121L24.7293 25.3187C24.5027 25.3254 24.2453 25.3334 24 25.3334C23.7547 25.3334 23.4973 25.3254 23.2707 25.3201L23.0013 25.3121C22.755 25.3027 22.5084 25.3076 22.2627 25.3267Z" fill="black"/>
</svg>
