<svg width="56" height="60" viewBox="0 0 56 60" fill="none" xmlns="http://www.w3.org/2000/svg">
<path d="M28 0.64624C27.65 0.64624 27.3 0.81874 26.9875 1.23499C26.6625 1.64999 26.425 2.29374 26.425 3.02749C26.425 3.76124 26.6625 4.40499 26.9875 4.81999C27.3 5.23624 27.65 5.40874 28 5.40874C28.35 5.40874 28.7 5.23624 29.0125 4.81999C29.3375 4.40499 29.575 3.76124 29.575 3.02749C29.575 2.29374 29.3375 1.64999 29.0125 1.23499C28.7 0.81874 28.35 0.64624 28 0.64624ZM18 3.55249V5.56499L25.25 9.06499V14.8125L24.075 24.2625H21.2C20.6 24.775 19.8375 25.1 19 25.1C18.125 25.1 17.325 24.7375 16.7 24.1875L9 22.2625V24.275L16.25 26.525V32.275L15.1125 41.325H12.2375C11.625 41.8625 10.85 42.2 10 42.2C9.125 42.2 8.3375 41.8375 7.725 41.2875L0 40.325V42.35L7.25 43.6V49.35L6 59.35H8L9.5 50.6H10.5L12 59.35H14L12.75 49.35V43.6L19 43.3875L25.25 43.6V49.35L24 59.35H26L27.5 50.6H28.5L30 59.35H32L30.75 49.35V43.6L37 43.3875L43.25 43.6V49.35L42 59.35H44L45.5 50.6H46.5L48 59.35H50L48.75 49.35V43.6L56 42.35V40.325L48.275 41.3C47.65 41.85 46.8625 42.2 46 42.2C45.15 42.2 44.375 41.8625 43.7625 41.325H40.8875L39.75 32.2625V26.5125L47 24.2625V22.25L39.3125 24.175C38.6875 24.75 37.8875 25.1125 37 25.1125C36.15 25.1125 35.375 24.775 34.7625 24.25H31.925L30.75 14.8125V9.06499L38 5.56499V3.55249L30.375 6.65874C29.75 7.25999 28.9125 7.65874 28 7.65874C27.0625 7.65874 26.225 7.24499 25.5875 6.62499L18 3.55249ZM27.5 16.0625H28.5L29.9 24.25H27V24.2625H26.1L27.5 16.0625ZM19 18.0875C18.65 18.0875 18.3 18.2625 17.9875 18.6875C17.6625 19.1 17.425 19.7375 17.425 20.475C17.425 21.2125 17.6625 21.85 17.9875 22.2625C18.3 22.6875 18.65 22.85 19 22.85C19.35 22.85 19.7 22.6875 20.0125 22.2625C20.3375 21.85 20.575 21.2125 20.575 20.475C20.575 19.7375 20.3375 19.1 20.0125 18.6875C19.7 18.2625 19.35 18.0875 19 18.0875ZM37 18.1C36.65 18.1 36.3 18.275 35.9875 18.7C35.6625 19.1125 35.425 19.75 35.425 20.4875C35.425 21.225 35.6625 21.8625 35.9875 22.275C36.3 22.7 36.65 22.8625 37 22.8625C37.35 22.8625 37.7 22.7 38.0125 22.275C38.3375 21.8625 38.575 21.225 38.575 20.4875C38.575 19.75 38.3375 19.1125 38.0125 18.7C37.7 18.275 37.35 18.1 37 18.1ZM28.175 26.3L34.25 26.5125V32.2625L33.1125 41.3375H30.225C29.6125 41.8625 28.85 42.2 28 42.2C27.15 42.2 26.3875 41.8625 25.775 41.3375H22.8875L21.75 32.275V26.525L28.175 26.3ZM36.5 33.5125H37.5L38.8375 41.325H36V41.3375H35.1625L36.5 33.5125ZM18.5 33.525H19.5L20.8375 41.3375H20V41.325H17.1625L18.5 33.525ZM10 35.175C9.65 35.175 9.3 35.35 8.9875 35.775C8.6625 36.1875 8.425 36.825 8.425 37.5625C8.425 38.3 8.6625 38.9375 8.9875 39.35C9.3 39.775 9.65 39.95 10 39.95C10.35 39.95 10.7 39.775 11.0125 39.35C11.3375 38.9375 11.575 38.3 11.575 37.5625C11.575 36.825 11.3375 36.1875 11.0125 35.775C10.7 35.35 10.35 35.175 10 35.175ZM46 35.175C45.65 35.175 45.3 35.35 44.9875 35.775C44.6625 36.1875 44.425 36.825 44.425 37.5625C44.425 38.3 44.6625 38.9375 44.9875 39.35C45.3 39.775 45.65 39.95 46 39.95C46.35 39.95 46.7 39.775 47.0125 39.35C47.3375 38.9375 47.575 38.3 47.575 37.5625C47.575 36.825 47.3375 36.1875 47.0125 35.775C46.7 35.35 46.35 35.175 46 35.175ZM28 35.1875C27.65 35.1875 27.3 35.3625 26.9875 35.775C26.6625 36.1875 26.425 36.8375 26.425 37.575C26.425 38.3 26.6625 38.95 26.9875 39.3625C27.3 39.775 27.65 39.95 28 39.95C28.35 39.95 28.7 39.775 29.0125 39.3625C29.3375 38.95 29.575 38.3 29.575 37.575C29.575 36.8375 29.3375 36.1875 29.0125 35.775C28.7 35.3625 28.35 35.1875 28 35.1875Z" fill="black"/>
</svg>
