<svg width="44" height="44" viewBox="0 0 44 44" fill="none" xmlns="http://www.w3.org/2000/svg">
<path d="M21.9999 39.3333C26.597 39.3333 31.0058 37.5071 34.2564 34.2565C37.5071 31.0059 39.3332 26.5971 39.3332 22C39.3332 17.4029 37.5071 12.9941 34.2564 9.74348C31.0058 6.49285 26.597 4.66666 21.9999 4.66666C17.4028 4.66666 12.994 6.49285 9.7434 9.74348C6.49277 12.9941 4.66658 17.4029 4.66658 22C4.66658 26.5971 6.49277 31.0059 9.7434 34.2565C12.994 37.5071 17.4028 39.3333 21.9999 39.3333ZM21.9999 0.333328C24.8452 0.333328 27.6627 0.893753 30.2914 1.9826C32.9201 3.07146 35.3086 4.66741 37.3206 6.67935C39.3325 8.69128 40.9285 11.0798 42.0173 13.7085C43.1062 16.3372 43.6666 19.1547 43.6666 22C43.6666 27.7463 41.3839 33.2574 37.3206 37.3206C33.2573 41.3839 27.7463 43.6667 21.9999 43.6667C10.0183 43.6667 0.333252 33.9167 0.333252 22C0.333252 16.2536 2.61598 10.7426 6.67927 6.67935C10.7426 2.61606 16.2536 0.333328 21.9999 0.333328ZM23.0833 11.1667V22.5417L32.8332 28.3267L31.2083 30.9917L19.8333 24.1667V11.1667H23.0833Z" fill="black"/>
</svg>
