<svg width="75" height="75" viewBox="0 0 75 75" fill="none" xmlns="http://www.w3.org/2000/svg">
<path d="M27 19.0023V31.007L37.4953 37L48 31.007V19.0023L37.4953 13L27 19.0023Z" stroke="#E6BE49" stroke-width="2" stroke-miterlimit="10"/>
<path d="M17 37.0023V49.007L27.0045 55L37 49.007V37.0023L27.0045 31L17 37.0023Z" stroke="#E6BE49" stroke-width="2" stroke-miterlimit="10"/>
<path d="M37 37.0023V49.007L47.5 55L58 49.007V37.0023L47.5 31L37 37.0023Z" stroke="#E6BE49" stroke-width="2" stroke-miterlimit="10"/>
<path d="M37.5 71C56.0015 71 71 56.0015 71 37.5C71 18.9985 56.0015 4 37.5 4C18.9985 4 4 18.9985 4 37.5C4 56.0015 18.9985 71 37.5 71Z" stroke="#E6BE49" stroke-width="2" stroke-miterlimit="10"/>
</svg>
