<svg width="50" height="66" viewBox="0 0 50 66" fill="none" xmlns="http://www.w3.org/2000/svg">
<path d="M21.1112 0.833333C17.7667 1.25556 14.6223 2.36667 11.7223 4.16667C11.1778 4.51111 10.6778 4.83333 10.6112 4.9C10.5556 4.95556 15.5445 5 23.9778 5C31.389 5 37.4445 4.97778 37.4445 4.95556C37.4445 4.83333 35.4556 3.65556 34.2223 3.04444C30.2223 1.06667 25.5445 0.277777 21.1112 0.833333Z" fill="#11221D"/>
<path d="M7.07778 7.91111C6.97778 8.05556 6.65556 8.44444 6.34445 8.77778C6.03334 9.11111 5.77778 9.42222 5.77778 9.45556C5.77778 9.48889 5.65556 9.66667 5.5 9.84444C5.34445 10.0222 5.08889 10.3667 4.92222 10.6111C4.76667 10.8556 4.48889 11.2667 4.31111 11.5222L3.98889 12H23.9333C34.9111 12 43.8889 11.9778 43.8889 11.9444C43.8889 11.7333 42.4111 9.66667 42.1556 9.52222C42.0667 9.47778 42 9.36667 42 9.28889C42 9.21111 41.6889 8.81111 41.3222 8.41111L40.6333 7.66667H23.9444H7.24445L7.07778 7.91111Z" fill="#11221D"/>
<path d="M3.72228 14.7445C3.02228 14.7778 2.58894 14.8334 2.53339 14.9223C2.38894 15.1445 1.35561 18.3667 1.32228 18.7223L1.27783 19.0556L6.55561 19.089C9.45561 19.1112 12.1334 19.089 12.5001 19.0556L13.1778 18.989L13.4889 18.4112C14.1223 17.289 14.7112 16.489 15.5223 15.6556L16.3556 14.8112L15.8223 14.7334C15.3112 14.6667 5.92228 14.6778 3.72228 14.7445Z" fill="#11221D"/>
<path d="M0.85561 21.7444C0.811165 21.7778 0.777832 22.7778 0.777832 23.9666V26.1111H6.55561H12.3334L12.2445 25.4111C12.1445 24.5333 12.1445 22.9889 12.2556 22.3222L12.3445 21.8111L11.9223 21.7333C11.3556 21.6444 0.944499 21.6444 0.85561 21.7444Z" fill="#11221D"/>
<path d="M1.27785 28.9111C1.31118 29.0555 1.38896 29.3666 1.44452 29.6111C1.50007 29.8666 1.74452 30.6666 2.00007 31.3889C2.25563 32.1222 2.48896 32.8111 2.5223 32.9111C2.57785 33.1 3.01118 33.1111 9.45563 33.1111C13.2445 33.1111 16.3334 33.0889 16.3334 33.0555C16.3334 33.0222 15.989 32.6444 15.5779 32.2222C14.7779 31.4222 13.5445 29.6889 13.3112 29.0444L13.1779 28.6666H7.18896H1.20007L1.27785 28.9111Z" fill="#11221D"/>
<path d="M4.11121 35.8888C4.11121 36.0888 5.33343 37.7999 6.36676 39.0444L7.37787 40.2444L23.9668 40.2111L40.5557 40.1666L41.1001 39.6111C42.0557 38.6222 43.5668 36.6111 43.789 36.0333L43.889 35.7777H24.0001C10.4445 35.7777 4.11121 35.8111 4.11121 35.8888Z" fill="#11221D"/>
<path d="M10.8333 43.0556C11.0222 43.2111 11.2 43.3334 11.2444 43.3334C11.2889 43.3334 11.4333 43.4223 11.5556 43.5223C11.9778 43.8889 13.8333 44.8556 15 45.3334C16.3778 45.8889 16.6556 45.9889 17.6111 46.2556C20.2333 46.9778 20.9111 47.0556 24.1667 47.0445C26.9333 47.0223 27.1222 47.0111 28.5556 46.6889C30.3556 46.2889 31.3556 46.0223 31.4889 45.8778C31.5556 45.8223 31.6778 45.7778 31.7667 45.7778C31.9444 45.7778 33.3222 45.2445 33.5 45.1111C33.5667 45.0667 33.7222 44.9889 33.8556 44.9556C34.2111 44.8445 36.2667 43.6778 36.9889 43.1889L37.5778 42.7778H24.0444L10.5 42.7889L10.8333 43.0556Z" fill="#11221D"/>
<path d="M47.6333 51.2001C47.3444 51.5112 47.2444 51.9112 47.3556 52.2445C47.5667 52.8557 48.4111 53.089 48.8667 52.6668C49.2111 52.3445 49.1778 52.2668 48.8222 52.5445C48.4333 52.8557 48.0556 52.8334 47.7222 52.5001C47.2778 52.0668 47.3778 51.4334 47.9444 51.1334C48.1111 51.0334 48.1222 51.0112 47.9889 51.0001C47.8889 51.0001 47.7333 51.089 47.6333 51.2001Z" fill="#11221D"/>
<path d="M48.5556 51.0779C48.789 51.1668 48.9779 51.4335 49.1001 51.8335C49.2001 52.1668 49.2001 52.1668 49.2112 51.8779C49.2223 51.5224 48.8334 51.0002 48.5779 51.0113C48.4223 51.0113 48.4223 51.0335 48.5556 51.0779Z" fill="#11221D"/>
<path d="M47.9668 51.5222C47.8112 51.6667 47.889 52.3111 48.0668 52.3778C48.3557 52.4889 48.5334 52.4556 48.6001 52.2778C48.6446 52.1445 48.6223 52.1333 48.4668 52.2111C48.189 52.3556 47.9779 52.2 48.0223 51.8778C48.0446 51.7111 48.1557 51.5889 48.3334 51.5445L48.6112 51.4667L48.3223 51.4556C48.1668 51.4445 48.0001 51.4778 47.9668 51.5222Z" fill="#11221D"/>
<path d="M9.7778 52.989C8.91113 53.2668 8.20002 53.8779 7.86669 54.6446C7.63335 55.1668 7.54446 56.6001 7.70002 57.389C8.04446 59.1224 10.0222 60.1112 11.8222 59.4335C12.5778 59.1557 13.2222 58.4668 13.4778 57.6557C13.7222 56.9112 13.7222 55.5557 13.4667 54.8668C13.2111 54.1668 12.6111 53.4557 12.0556 53.2112C11.5445 52.989 10.1889 52.8557 9.7778 52.989ZM12.5445 54.0557C13.5667 55.1557 13.6 57.3779 12.6222 58.4335C12.1778 58.9112 11.2889 59.3335 10.7111 59.3335C9.93335 59.3335 9.11113 59.0224 8.70002 58.5779C8.14446 57.9557 7.9778 57.3001 8.02224 55.9668C8.05557 54.8668 8.06669 54.8224 8.44446 54.3557C9.01113 53.6557 9.46669 53.4112 10.3778 53.3446C11.4222 53.2557 11.9778 53.4446 12.5445 54.0557Z" fill="#11221D"/>
<path d="M15.289 53.4668C15.2556 53.789 15.2223 55.3223 15.2223 56.8557C15.2223 59.589 15.2334 59.6668 15.4445 59.6668C15.6667 59.6668 15.6667 59.589 15.6667 56.5779V53.5001L15.9778 53.8335C16.2223 54.1001 17.2778 55.3223 17.689 55.8335C18.1556 56.4001 19.7001 58.3335 20.2001 58.9668C20.5556 59.4001 20.8667 59.7668 20.9223 59.7668C20.9667 59.7779 21.0001 58.2223 21.0001 56.3335C21.0001 53.3446 20.9778 52.889 20.8334 52.889C20.689 52.889 20.6667 53.2779 20.6667 55.7668C20.6667 57.5779 20.6223 58.6779 20.5556 58.7223C20.5001 58.7557 20.4445 58.7557 20.4445 58.7001C20.4445 58.6557 20.2778 58.4335 20.0778 58.2112C19.889 57.989 19.4001 57.4112 19.0001 56.9335C18.6112 56.4446 18.2001 55.9557 18.089 55.8335C17.989 55.7112 17.6556 55.3112 17.3667 54.9446C16.4334 53.7668 15.6445 52.889 15.5001 52.889C15.4223 52.889 15.3334 53.1223 15.289 53.4668Z" fill="#11221D"/>
<path d="M28.7778 56.2667C28.7778 59.2112 28.8001 59.6667 28.9445 59.6667C29.0889 59.6667 29.1112 59.4334 29.1112 58.2223V56.7778H30.4334H31.7556L32.0223 57.2445C32.1667 57.5112 32.3556 57.9001 32.4334 58.1112C32.5223 58.3223 32.6556 58.5778 32.7223 58.6667C32.8001 58.7556 32.9223 59.0223 33.0001 59.2445C33.0889 59.5445 33.1889 59.6667 33.3445 59.6667C33.5889 59.6667 33.6001 59.689 32.7889 57.989C32.5334 57.4556 32.3334 56.9445 32.3334 56.8445C32.3334 56.7445 32.4556 56.6112 32.6001 56.5556C32.7445 56.5001 33.0001 56.2778 33.1778 56.0556C33.4223 55.7223 33.4778 55.5334 33.4889 54.9667C33.5001 54.0667 33.2667 53.5778 32.6445 53.2223C32.2112 52.9667 32.0223 52.9445 30.4778 52.9112L28.7778 52.8667V56.2667ZM32.4445 53.5001C32.8778 53.7223 33.1112 54.2001 33.1112 54.8334C33.1112 56.1445 32.6223 56.4445 30.5001 56.4445H29.1112V54.889V53.3334H30.6112C31.7445 53.3334 32.2001 53.3778 32.4445 53.5001Z" fill="#11221D"/>
<path d="M37.2779 52.9556C35.6779 53.3668 34.7779 54.7556 34.9223 56.6112C35.0557 58.4445 36.0668 59.5334 37.7445 59.6445C39.0445 59.7334 40.1001 59.1445 40.6668 58.0334C40.9112 57.5556 40.9445 57.3668 40.9445 56.2779C40.9334 55.1779 40.9112 55.0001 40.6445 54.5001C40.3001 53.8445 40.0112 53.5556 39.3334 53.2223C38.8445 52.9779 37.7557 52.8334 37.2779 52.9556ZM39.0223 53.4668C39.6668 53.6556 40.3668 54.4779 40.5557 55.2556C40.9001 56.7223 40.4445 58.2556 39.4445 58.9334C39.0112 59.2223 38.8779 59.2556 38.0112 59.2668C37.2334 59.2779 37.0001 59.2334 36.7223 59.0556C36.5445 58.9334 36.389 58.8556 36.3668 58.889C36.3223 58.9779 35.7668 58.189 35.5445 57.7223C35.389 57.3779 35.3334 57.0223 35.3445 56.1668C35.3445 55.0668 35.3445 55.0445 35.7557 54.4445C36.289 53.6556 36.889 53.3445 37.8779 53.3334C38.2668 53.3334 38.7779 53.389 39.0223 53.4668Z" fill="#11221D"/>
<path d="M42.7334 52.9667C42.7001 53.0001 42.6667 54.5334 42.6667 56.3556V59.6667H44.9445C47.1445 59.6667 47.2223 59.6556 47.2223 59.4445C47.2223 59.2334 47.1445 59.2223 45.1112 59.2223H43.0001V56.1223C43.0001 53.3001 42.9556 52.7445 42.7334 52.9667Z" fill="#11221D"/>
<path d="M2.38893 53.2668C1.70004 53.589 1.42226 53.8779 1.04448 54.7002C0.777816 55.3002 0.755594 55.4446 0.800038 56.4335C0.833371 57.3335 0.888927 57.6113 1.15559 58.1446C1.77782 59.4224 3.27782 59.9668 4.84448 59.5002C5.48893 59.3002 6.64448 58.3224 6.30004 58.2446C6.18893 58.2224 5.90004 58.389 5.61115 58.6446C4.51115 59.6113 2.61115 59.5002 1.7667 58.4335C0.888927 57.3224 0.900038 55.189 1.78893 54.1779C2.67782 53.1557 4.43337 53.0335 5.58893 53.9224C6.07782 54.289 6.34448 54.1557 5.92226 53.7446C5.10004 52.9668 3.48893 52.7446 2.38893 53.2668Z" fill="#11221D"/>
<path d="M22.1112 53.1667C22.1112 53.3001 22.3223 53.3334 23.389 53.3334H24.6668V56.5001C24.6668 59.2445 24.689 59.6667 24.8334 59.6667C24.9779 59.6667 25.0001 59.2445 25.0001 56.5001V53.3445L26.3001 53.3112C27.2112 53.289 27.6112 53.2334 27.6445 53.1334C27.6779 53.0334 27.0779 53.0001 24.9001 53.0001C22.5001 53.0001 22.1112 53.0223 22.1112 53.1667Z" fill="#11221D"/>
<path d="M18.289 62.0889C18.0778 62.5 17.2223 64.4333 17.2223 64.5C17.2223 64.6667 17.4223 64.5111 17.589 64.2222C17.7778 63.9111 17.8334 63.8889 18.489 63.8889C19.1667 63.8889 19.2001 63.9 19.3334 64.2222C19.4112 64.4 19.5445 64.5556 19.6334 64.5556C19.7667 64.5556 19.7667 64.5111 19.6223 64.2444C19.4223 63.8667 19.0556 63.0333 18.8112 62.4111C18.5556 61.7556 18.489 61.7111 18.289 62.0889ZM18.7556 62.9444C18.889 63.2222 19.0001 63.4778 19.0001 63.5C19.0001 63.5333 18.7556 63.5556 18.4445 63.5556C17.9001 63.5556 17.9001 63.5556 18.0001 63.2778C18.0667 63.1222 18.1556 62.8778 18.2223 62.7222C18.3778 62.3333 18.4778 62.3778 18.7556 62.9444Z" fill="#11221D"/>
<path d="M22.9222 62.6667C22.6 62.8001 22.4445 63.1112 22.4445 63.6334C22.4445 64.1223 22.5111 64.2445 22.8556 64.4334C23.2111 64.6112 23.6111 64.589 23.9 64.3445L24.1667 64.1223L23.7 64.2445C23.3111 64.3445 23.1778 64.3334 22.9445 64.1779C22.5 63.889 22.6222 63.7779 23.3778 63.7779C23.7778 63.7779 24.1222 63.7334 24.1667 63.6667C24.2667 63.5001 23.9333 62.8112 23.6889 62.6779C23.4222 62.5334 23.2556 62.5334 22.9222 62.6667ZM23.7778 63.1001C23.9445 63.4334 23.9333 63.4445 23.3556 63.4445C22.7111 63.4445 22.6 63.3667 22.8556 63.089C23.1 62.8223 23.6222 62.8223 23.7778 63.1001Z" fill="#11221D"/>
<path d="M25.1445 62.6334L24.7778 62.6779V63.6223C24.7778 64.1334 24.8223 64.5557 24.8778 64.5557C25.0112 64.5557 25.1112 64.1557 25.1112 63.6001C25.1112 63.0779 25.2667 62.889 25.6889 62.889C26.0667 62.889 26.2223 63.1557 26.2223 63.8001C26.2223 64.0668 26.2778 64.3557 26.3334 64.4446C26.4112 64.5557 26.4445 64.3779 26.4445 63.8334C26.4445 63.1334 26.4112 63.0334 26.1445 62.8112C25.9889 62.6668 25.7778 62.5668 25.6778 62.5779C25.5778 62.5779 25.3334 62.6112 25.1445 62.6334Z" fill="#11221D"/>
<path d="M27.5 62.6891C27.1333 62.878 27 63.1335 27 63.6113C27 64.2557 27.3778 64.6113 27.9556 64.5224C28.3778 64.4557 28.6444 64.278 28.5333 64.1557C28.4889 64.1224 28.2889 64.1557 28.0667 64.2335C27.7556 64.3446 27.6444 64.3446 27.5111 64.2335C27.2444 64.0113 27.1778 63.478 27.3889 63.1446C27.5667 62.8891 27.6222 62.8668 28.0889 62.9335C28.5333 62.9891 28.5778 62.978 28.4444 62.8446C28.2 62.6224 27.7556 62.5446 27.5 62.6891Z" fill="#11221D"/>
<path d="M20.2334 62.9556C19.6223 63.7223 20.3445 64.8112 21.2334 64.4778C21.6334 64.3223 21.6556 64.4667 21.2778 64.8445C21.0334 65.089 20.9334 65.1223 20.5556 65.0556C20.2778 65.0112 20.1111 65.0223 20.1111 65.089C20.1111 65.2778 20.9778 65.3667 21.3334 65.2223C21.7223 65.0667 21.7778 64.8667 21.7778 63.6334V62.6667H21.1223C20.5445 62.6667 20.4334 62.7001 20.2334 62.9556ZM21.4 63.0778C21.7889 63.6001 21.4223 64.2667 20.7667 64.2001C20.3111 64.1556 20.1223 63.7223 20.3334 63.2112C20.4445 62.9445 20.5334 62.889 20.8667 62.889C21.1 62.889 21.3111 62.9667 21.4 63.0778Z" fill="#11221D"/>
<path d="M29.1112 63.2445C29.1112 63.5667 29.1446 63.9445 29.1779 64.0778C29.2557 64.3778 29.8446 64.6001 30.2668 64.4889C30.589 64.4112 30.6334 64.5223 30.4112 64.8334C30.289 64.9889 30.1557 65.0223 29.689 64.9778C29.0112 64.9112 28.8557 65.1556 29.489 65.2667C30.0112 65.3667 30.4001 65.2556 30.6001 64.9334C30.8001 64.6334 30.8557 62.6667 30.6668 62.6667C30.6112 62.6667 30.5557 62.9445 30.5557 63.2778C30.5557 63.7445 30.5001 63.9445 30.3334 64.1112C29.8112 64.6334 29.3334 64.2445 29.3334 63.3001C29.3334 62.9556 29.289 62.6667 29.2223 62.6667C29.1668 62.6667 29.1112 62.9334 29.1112 63.2445Z" fill="#11221D"/>
</svg>
