<svg width="44" height="42" viewBox="0 0 44 42" fill="none" xmlns="http://www.w3.org/2000/svg">
<path d="M39.3335 8.99999C40.5902 8.99999 41.6085 9.43333 42.4102 10.2783C43.2335 11.1667 43.6668 12.1417 43.6668 13.3333V37.1667C43.6668 38.3583 43.2335 39.3333 42.4102 40.2217C41.6085 41.0667 40.5902 41.5 39.3335 41.5H4.66683C3.41016 41.5 2.39183 41.0667 1.59016 40.2217C0.766829 39.3333 0.333496 38.3583 0.333496 37.1667V13.3333C0.333496 12.1417 0.766829 11.1667 1.59016 10.2783C2.39183 9.43333 3.41016 8.99999 4.66683 8.99999H13.3335V4.66666C13.3335 3.40999 13.7668 2.39166 14.5902 1.58999C15.3918 0.766661 16.4102 0.333328 17.6668 0.333328H26.3335C27.5902 0.333328 28.6085 0.766661 29.4102 1.58999C30.2335 2.39166 30.6668 3.40999 30.6668 4.66666V8.99999H39.3335ZM4.66683 13.3333V37.1667H39.3335V13.3333H4.66683ZM26.3335 8.99999V4.66666H17.6668V8.99999H26.3335Z" fill="black"/>
</svg>
