<?xml version="1.0" encoding="iso-8859-1"?>
<!-- Uploaded to: SVG Repo, www.svgrepo.com, Generator: SVG Repo Mixer Tools -->
<!DOCTYPE svg PUBLIC "-//W3C//DTD SVG 1.1//EN" "http://www.w3.org/Graphics/SVG/1.1/DTD/svg11.dtd">
<svg fill="#000000" version="1.1" id="Capa_1" xmlns="http://www.w3.org/2000/svg" xmlns:xlink="http://www.w3.org/1999/xlink" 
	 width="800px" height="800px" viewBox="0 0 32.575 32.575"
	 xml:space="preserve">
<g>
	<path d="M21.381,18.807c0.012,0,0.021-0.002,0.032-0.002c0.015,0,0.026,0.002,0.042,0.002H21.381z M17.25,14.201
		c0.012-0.003,0.02-0.015,0.032-0.018c0.724,2.62,2.598,4.579,4.501,4.622c1.734-0.08,3.863-2.004,4.572-4.609
		c0.326,0.02,0.652-0.364,0.744-0.899c0.095-0.559-0.104-1.057-0.44-1.115c-0.022-0.003-0.043,0.01-0.065,0.011
		c-0.099-4.311-2.145-5.83-4.725-5.896c-2.658,0.013-5.039,1.861-4.889,5.896c-0.024,0-0.049-0.016-0.073-0.011
		c-0.337,0.058-0.535,0.557-0.439,1.115C16.561,13.85,16.911,14.257,17.25,14.201z M21.581,6.288h-0.327
		c0.083-0.001,0.164,0.004,0.245,0.006C21.527,6.294,21.555,6.288,21.581,6.288z M6.963,21.882h-1.51l1.892-1.891
		C3.115,20.405,0,22.016,0,26.288h9.271l-3.356-3.354L6.963,21.882z M25.366,19.553l-2.415,4.727l-0.381-3.074l0.596-0.488h-1.445
		H20.4l0.598,0.488l-0.382,3.074l-2.413-4.727c-4.197,0.563-7.21,2.362-7.21,6.735h21.582
		C32.574,21.915,29.561,20.116,25.366,19.553z M13.731,13.167c-0.137,1.88-0.939,4.076-2.091,5.253h4.453v-4.967
		c0-5.194-2.747-7.166-6.134-7.166c-3.388,0-6.134,1.971-6.134,7.166v4.967h4.452c-1.114-1.139-1.906-3.232-2.081-5.07l0.043-0.003
		c1.917,0,3.571-0.794,4.481-1.964C11.386,12.241,12.453,12.88,13.731,13.167z"/>
</g>
</svg>