<svg width="52" height="52" viewBox="0 0 52 52" fill="none" xmlns="http://www.w3.org/2000/svg">
<path d="M51.8296 19.5875C51.6344 18.944 51.2583 18.3759 50.7495 17.9561C50.2408 17.5363 49.6227 17.2842 48.9748 17.2321L34.9231 15.971C34.8381 15.9623 34.757 15.9299 34.6883 15.8772C34.6197 15.8245 34.566 15.7535 34.5332 15.6717L29.0434 2.08875C28.7891 1.46912 28.365 0.940754 27.8239 0.569378C27.2827 0.198002 26.6483 0 25.9995 0C25.3508 0 24.7164 0.198002 24.1752 0.569378C23.634 0.940754 23.21 1.46912 22.9557 2.08875L17.4659 15.6717C17.4331 15.7535 17.3794 15.8245 17.3108 15.8772C17.2421 15.9299 17.161 15.9623 17.076 15.971L3.02428 17.2321C2.37638 17.2842 1.75832 17.5363 1.24957 17.9561C0.740831 18.3759 0.364678 18.944 0.169499 19.5875C-0.0372131 20.232 -0.0552696 20.9256 0.117613 21.5806C0.290495 22.2357 0.646554 22.8229 1.14078 23.2679L11.8013 32.9226C11.8666 32.9828 11.9151 33.0602 11.9417 33.1465C11.9683 33.2328 11.972 33.325 11.9525 33.4134L8.748 47.7691C8.59863 48.4301 8.64124 49.1222 8.87048 49.758C9.09971 50.3938 9.50528 50.9449 10.036 51.3415C10.5584 51.7417 11.1844 51.9701 11.8332 51.9973C12.4819 52.0244 13.1236 51.849 13.6753 51.4936L25.7538 43.8876C25.8248 43.842 25.9066 43.8178 25.9901 43.8178C26.0736 43.8178 26.1554 43.842 26.2264 43.8876L38.3049 51.4936C38.8623 51.848 39.5084 52.023 40.1616 51.9965C40.8148 51.97 41.4457 51.7432 41.9749 51.3447C42.504 50.9463 42.9076 50.3941 43.1348 49.7577C43.3619 49.1213 43.4024 48.4294 43.2511 47.7691L40.056 33.4085C40.0365 33.3201 40.0403 33.2279 40.0669 33.1416C40.0935 33.0553 40.142 32.9779 40.2073 32.9177L50.8678 23.263C51.3594 22.8172 51.7131 22.2304 51.8843 21.5763C52.0554 20.9223 52.0364 20.2304 51.8296 19.5875ZM48.9937 21.0401L38.3332 30.6948C37.879 31.1052 37.5412 31.6364 37.3563 32.2313C37.1714 32.8263 37.1464 33.4623 37.2839 34.0709L40.479 48.4316C40.5026 48.5281 40.4974 48.6298 40.4641 48.7231C40.4307 48.8164 40.3708 48.897 40.2923 48.9542C40.2213 49.0133 40.1339 49.0473 40.043 49.0513C39.952 49.0552 39.8622 49.029 39.7866 48.9763L27.7082 41.3703C27.1932 41.0453 26.6022 40.8734 25.9995 40.8734C25.3969 40.8734 24.8059 41.0453 24.2909 41.3703L12.2125 48.9763C12.1369 49.029 12.0471 49.0552 11.9561 49.0513C11.8652 49.0473 11.7778 49.0133 11.7068 48.9542C11.6283 48.897 11.5684 48.8164 11.535 48.7231C11.5017 48.6298 11.4965 48.5281 11.5201 48.4316L14.7151 34.0709C14.8527 33.4623 14.8277 32.8263 14.6428 32.2313C14.4579 31.6364 14.1201 31.1052 13.6659 30.6948L3.00537 21.0401C2.93246 20.9757 2.88009 20.8898 2.8552 20.7939C2.8303 20.6979 2.83405 20.5964 2.86594 20.5027C2.88981 20.4094 2.94155 20.3264 3.01374 20.2655C3.08593 20.2047 3.17484 20.1692 3.26769 20.1641L17.3218 18.903C17.9235 18.8498 18.4996 18.6266 18.9878 18.2577C19.4761 17.8888 19.8577 17.3882 20.0915 16.8101L25.5813 3.2272C25.6194 3.1429 25.6799 3.07162 25.7557 3.02169C25.8314 2.97176 25.9193 2.94525 26.009 2.94525C26.0987 2.94525 26.1866 2.97176 26.2623 3.02169C26.3381 3.07162 26.3986 3.1429 26.4367 3.2272L31.9076 16.8101C32.1406 17.3868 32.5208 17.8865 33.0073 18.2553C33.4937 18.6241 34.0679 18.8481 34.6679 18.903L48.722 20.1641C48.8148 20.1692 48.9037 20.2047 48.9759 20.2655C49.0481 20.3264 49.0998 20.4094 49.1237 20.5027C49.1567 20.5955 49.1619 20.6964 49.1387 20.7923C49.1155 20.8881 49.065 20.9745 48.9937 21.0401Z" fill="black"/>
<path d="M30.2195 21.8216C30.0519 24.1229 28.338 26.0002 26.4564 26.0002C24.5748 26.0002 22.8579 24.1233 22.6932 21.8216C22.5222 19.4277 24.1899 17.6431 26.4564 17.6431C28.7228 17.6431 30.3906 19.4712 30.2195 21.8216Z" stroke="black" stroke-width="1.5" stroke-linecap="round" stroke-linejoin="round"/>
<path d="M26.4562 28.7856C22.7358 28.7856 18.9599 30.8749 18.2611 34.8185C18.1769 35.2938 18.4411 35.7499 18.9299 35.7499H33.9825C34.4718 35.7499 34.736 35.2938 34.6518 34.8185C33.9526 30.8749 30.1766 28.7856 26.4562 28.7856Z" stroke="black" stroke-width="1.5" stroke-miterlimit="10"/>
</svg>
