<svg width="52" height="52" viewBox="0 0 52 52" fill="none" xmlns="http://www.w3.org/2000/svg">
<path fill-rule="evenodd" clip-rule="evenodd" d="M40.3603 43.6418L26.7162 51.8096C26.5046 51.9369 26.2529 52 26 52C25.7471 52 25.4954 51.9369 25.2826 51.8096L11.6397 43.6418C4.35145 39.2793 0 32.3761 0 25.1759V8.35636C0 7.84378 0.528273 7.42778 1.18182 7.42778C17.0087 7.42778 25.0321 0.387221 25.1101 0.31572C25.3335 0.115145 25.6585 0 25.9988 0C25.9988 0 26 0 26.0012 0C26.3404 0 26.663 0.114216 26.8875 0.314791C26.9679 0.385364 35.0539 7.42778 50.8182 7.42778C51.4717 7.42778 52 7.84378 52 8.35636V25.1759C52 32.3761 47.6485 39.2793 40.3603 43.6418ZM49.6361 9.27311C36.3465 8.99639 28.5205 4.11759 25.9997 2.24927C23.4789 4.11759 15.6529 8.99639 2.36333 9.27311V25.1761C2.36333 31.8007 6.36733 38.1503 13.0718 42.1646L25.9997 49.9044L38.9264 42.1646C45.6321 38.1503 49.6361 31.8007 49.6361 25.1761V9.27311ZM40.0885 38.8826C40.079 38.89 40.0766 38.9012 40.066 38.9086C40.0577 38.9151 40.0459 38.917 40.0376 38.9235C39.2446 39.5521 38.4008 40.1455 37.4967 40.6869L26.7162 47.1406C26.6914 47.1554 26.6618 47.1638 26.6335 47.1749C26.5956 47.1935 26.5637 47.2176 26.5236 47.2334C26.5058 47.2408 26.4846 47.2381 26.4668 47.2436C26.4515 47.2501 26.4361 47.2585 26.4196 47.2631C26.2848 47.304 26.143 47.33 26 47.33C25.8393 47.33 25.6833 47.2947 25.5332 47.2436C25.5249 47.2408 25.5143 47.2418 25.5048 47.239C25.4954 47.2353 25.4847 47.2371 25.4765 47.2334C25.4422 47.2204 25.4186 47.1991 25.3866 47.1833C25.3536 47.1666 25.3146 47.1591 25.2826 47.1406L14.5033 40.6869C8.38264 37.0217 4.72728 31.2227 4.72728 25.1757V25.0708V11.883C4.72728 11.4076 5.18582 11.0083 5.78855 10.96C15.0233 10.2171 21.4902 7.37563 25.2874 5.12288C25.3004 5.11545 25.3157 5.11359 25.3299 5.11081C25.3772 5.08481 25.4197 5.05416 25.4729 5.03373C25.5403 5.0068 25.6171 5.01795 25.688 5.00216C25.7282 4.99288 25.7613 4.97245 25.8038 4.96687C25.8487 4.96037 25.8877 4.9483 25.9338 4.94645C25.9563 4.94552 25.9764 4.9353 26 4.9353C26.0213 4.9353 26.039 4.94552 26.0603 4.94737C26.1253 4.94923 26.1808 4.97059 26.2446 4.98173C26.3297 4.99845 26.4219 5.0003 26.4999 5.02909C26.5082 5.0328 26.5188 5.03002 26.5271 5.03373C26.5756 5.0523 26.6122 5.08202 26.6559 5.10616C26.6725 5.11545 26.6949 5.11359 26.7115 5.12288C30.5098 7.37563 36.9767 10.2171 46.2115 10.96C46.8142 11.0083 47.2727 11.4076 47.2727 11.883V25.0708V25.1757C47.2727 27.4238 46.7539 29.6311 45.7966 31.7102C45.7884 31.7288 45.7836 31.7474 45.773 31.7659C45.1726 33.0604 44.4021 34.3047 43.4755 35.4747C43.446 35.536 43.3928 35.5889 43.3455 35.6456C42.406 36.8054 41.3246 37.8965 40.0885 38.8826ZM42.1073 33.6279C42.5611 32.9797 42.9511 32.3065 43.3009 31.6203L36.1474 25.9995H32.3987L42.1073 33.6279ZM27.1817 44.5268L29.5548 43.1061L27.1817 41.2415V44.5268ZM27.1817 38.6154L31.4516 41.9704L33.5789 40.6964L27.1817 35.6699V38.6154ZM27.1817 33.0439L35.4757 39.5607L36.0631 39.2097C36.576 38.9033 37.0534 38.5662 37.5273 38.2272L27.1817 30.0984V33.0439ZM27.1817 27.4723L39.1866 36.9039C39.7799 36.3793 40.3164 35.8203 40.8246 35.2473L29.0561 25.9995H27.1817V27.4723ZM24.8185 18.1864V15.241L13.4895 24.1424H17.2383L24.8185 18.1864ZM20.5802 24.1424H24.8182V20.8125L20.5802 24.1424ZM15.9366 39.2096L24.8179 44.5267V27.8567V25.9995H7.11546C7.42864 31.1699 10.6763 36.0608 15.9366 39.2096ZM7.0906 24.1424H10.1468L24.8179 12.6149V9.66943L7.0906 23.5983V24.1424ZM7.0906 12.7123V15.4006L11.2482 12.1338C9.92579 12.3669 8.54897 12.5684 7.0906 12.7123ZM15.9081 11.0985L7.0906 18.0267V20.9721L22.8064 8.62378C20.8552 9.5078 18.5566 10.3723 15.9081 11.0985ZM44.909 12.7125C37.0534 11.9352 31.1609 9.72241 27.1817 7.65723V24.1424H29.5453H36.6362H44.909V12.7125ZM44.1326 29.6479C44.5404 28.4612 44.8086 27.242 44.8831 25.9995H39.4893L44.1326 29.6479Z" fill="black"/>
</svg>
