<svg width="52" height="52" viewBox="0 0 52 52" fill="none" xmlns="http://www.w3.org/2000/svg">
<path fill-rule="evenodd" clip-rule="evenodd" d="M46.6207 0C49.5865 0 52 2.41262 52 5.37931C52 8.03848 50.0563 10.2377 47.5172 10.6681V26.9871C50.0563 27.4174 52 29.6167 52 32.2759C52 35.2426 49.5865 37.6552 46.6207 37.6552C45.6237 37.6552 44.6913 37.3817 43.8925 36.9066L36.9066 43.8925C37.3817 44.6913 37.6552 45.6237 37.6552 46.6207C37.6552 49.5874 35.2426 52 32.2759 52C29.6167 52 27.4174 50.0563 26.9871 47.5172H10.6681C10.2377 50.0563 8.03848 52 5.37931 52C2.41262 52 0 49.5874 0 46.6207C0 43.9615 1.94372 41.7623 4.48276 41.3319V25.0129C1.94372 24.5826 0 22.3833 0 19.7241C0 16.7574 2.41262 14.3448 5.37931 14.3448C6.53945 14.3448 7.60007 14.7303 8.4769 15.3588L15.349 8.48676C14.7223 7.60724 14.3448 6.53945 14.3448 5.37931C14.3448 2.41262 16.7574 0 19.7241 0C22.3833 0 24.5826 1.94372 25.0129 4.48276H41.3319C41.7623 1.94372 43.9615 0 46.6207 0ZM32.2759 43.0345C30.2981 43.0345 28.6897 44.6429 28.6897 46.6207C28.6897 48.5976 30.2981 50.2069 32.2759 50.2069C34.2528 50.2069 35.8621 48.5976 35.8621 46.6207C35.8621 44.6429 34.2528 43.0345 32.2759 43.0345ZM5.37931 43.0345C3.40152 43.0345 1.7931 44.6429 1.7931 46.6207C1.7931 48.5976 3.40152 50.2069 5.37931 50.2069C7.35621 50.2069 8.96552 48.5976 8.96552 46.6207C8.96552 44.6429 7.35621 43.0345 5.37931 43.0345ZM26.9871 20.6207H10.6681C10.2879 22.8674 8.51993 24.6417 6.27586 25.0219V41.323C7.08814 41.4601 7.83497 41.7856 8.47869 42.2446L8.64903 42.0752C8.99959 41.7246 9.56621 41.7246 9.91676 42.0752C10.2673 42.4248 10.2673 42.9923 9.91676 43.3429L9.74552 43.5132C10.2054 44.1606 10.53 44.9092 10.6681 45.7241H26.9871C27.3672 43.4774 29.1352 41.7031 31.3793 41.323V32.3171L31.3712 32.2759L31.3793 32.2346V25.0219C29.1352 24.6417 27.3672 22.8674 26.9871 20.6207ZM43.5159 9.75175L36.651 16.6166C37.2777 17.4962 37.6552 18.564 37.6552 19.7241C37.6552 22.3833 35.7114 24.5825 33.1724 25.0129V31.3793H34.0609C34.5558 31.3793 34.9574 31.7809 34.9574 32.2758C34.9574 32.7707 34.5558 33.1724 34.0609 33.1724H33.1724V41.3319C34.1398 41.496 35.0184 41.9191 35.7392 42.5252L42.5243 35.7383C41.9192 35.0184 41.496 34.1397 41.3319 33.1724H41.2333C40.7375 33.1724 40.3368 32.7707 40.3368 32.2758C40.3368 31.7809 40.7375 31.3793 41.2333 31.3793H41.323C41.7031 29.1352 43.4774 27.3672 45.7241 26.9871V10.677C44.9101 10.5389 44.1614 10.2126 43.5159 9.75175ZM12.4637 39.528C12.8143 39.8776 12.8143 40.4452 12.4637 40.7957L11.4452 41.8142C11.2704 41.989 11.0409 42.0769 10.8114 42.0769C10.5819 42.0769 10.3523 41.989 10.1775 41.8142C9.82696 41.4636 9.82696 40.897 10.1775 40.5465L11.196 39.528C11.5465 39.1774 12.1141 39.1774 12.4637 39.528ZM15.0109 36.981C15.3605 37.3316 15.3605 37.8982 15.0109 38.2488L13.9915 39.2672C13.8167 39.443 13.5872 39.5299 13.3576 39.5299C13.129 39.5299 12.8995 39.443 12.7238 39.2672C12.3741 38.9176 12.3741 38.3501 12.7238 37.9995L13.7432 36.981C14.0928 36.6305 14.6603 36.6305 15.0109 36.981ZM19.7161 26C20.211 26 20.6126 26.4017 20.6126 26.8966V26.9772C22.8603 27.3547 24.6319 29.1299 25.0129 31.3793H25.0954C25.5903 31.3793 25.9919 31.781 25.9919 32.2759C25.9919 32.7708 25.5903 33.1724 25.0954 33.1724H25.0129C24.5826 35.7114 22.3833 37.6552 19.7241 37.6552C18.5622 37.6552 17.4926 37.2759 16.6122 36.6474L16.5387 36.721C16.363 36.8958 16.1334 36.9837 15.9048 36.9837C15.6753 36.9837 15.4449 36.8958 15.2701 36.721C14.9204 36.3704 14.9204 35.8029 15.271 35.4523L15.3445 35.3788C14.7205 34.5002 14.3448 33.4333 14.3448 32.2759C14.3448 29.6194 16.2841 27.421 18.8195 26.988V26.8966C18.8195 26.4017 19.2203 26 19.7161 26ZM46.6207 28.6897C44.6429 28.6897 43.0345 30.2981 43.0345 32.2759C43.0345 34.2537 44.6429 35.8621 46.6207 35.8621C48.5985 35.8621 50.2069 34.2537 50.2069 32.2759C50.2069 30.2981 48.5985 28.6897 46.6207 28.6897ZM19.7241 28.6897C17.7463 28.6897 16.1379 30.2981 16.1379 32.2759C16.1379 34.2537 17.7463 35.8621 19.7241 35.8621C21.6921 35.8621 23.2924 34.268 23.3077 32.3028L23.3023 32.2759L23.3077 32.2481C23.2924 30.2837 21.6921 28.6897 19.7241 28.6897ZM29.5783 31.3793C30.0732 31.3793 30.4749 31.781 30.4749 32.2759C30.4749 32.7708 30.0732 33.1724 29.5783 33.1724H27.7852C27.2894 33.1724 26.8887 32.7708 26.8887 32.2759C26.8887 31.781 27.2894 31.3793 27.7852 31.3793H29.5783ZM38.5438 31.3793C39.0387 31.3793 39.4404 31.781 39.4404 32.2759C39.4404 32.7708 39.0387 33.1724 38.5438 33.1724H36.7507C36.255 33.1724 35.8542 32.7708 35.8542 32.2759C35.8542 31.781 36.255 31.3793 36.7507 31.3793H38.5438ZM19.7163 21.5172C20.2112 21.5172 20.6128 21.9189 20.6128 22.4138V24.2069C20.6128 24.7018 20.2112 25.1034 19.7163 25.1034C19.2205 25.1034 18.8197 24.7018 18.8197 24.2069V22.4138C18.8197 21.9189 19.2205 21.5172 19.7163 21.5172ZM32.2759 16.1379C30.2981 16.1379 28.6897 17.7463 28.6897 19.7241C28.6897 21.701 30.2981 23.3103 32.2759 23.3103C34.2528 23.3103 35.8621 21.701 35.8621 19.7241C35.8621 17.7463 34.2528 16.1379 32.2759 16.1379ZM5.37931 16.1379C3.40152 16.1379 1.7931 17.7463 1.7931 19.7241C1.7931 21.701 3.40152 23.3103 5.37931 23.3103C7.35621 23.3103 8.96552 21.701 8.96552 19.7241C8.96552 17.7463 7.35621 16.1379 5.37931 16.1379ZM41.3317 6.27586H25.0127C24.6317 8.52531 22.8601 10.3005 20.6124 10.6779V10.7586C20.6124 11.2535 20.2108 11.6552 19.7159 11.6552C19.2201 11.6552 18.8193 11.2535 18.8193 10.7586V10.677C18.0097 10.5354 17.2611 10.2144 16.6165 9.75448L9.73993 16.631C10.1963 17.2766 10.5307 18.0162 10.6679 18.8276H18.8193V17.931C18.8193 17.4361 19.2201 17.0345 19.7159 17.0345C20.2108 17.0345 20.6124 17.4361 20.6124 17.931V18.8276H26.9869C27.4172 16.2886 29.6165 14.3448 32.2757 14.3448C33.4358 14.3448 34.5036 14.7223 35.3831 15.349L42.2507 8.48138C41.7935 7.83586 41.4698 7.08814 41.3317 6.27586ZM19.7163 12.5517C20.2112 12.5517 20.6128 12.9534 20.6128 13.4483V15.2414C20.6128 15.7363 20.2112 16.1379 19.7163 16.1379C19.2205 16.1379 18.8197 15.7363 18.8197 15.2414V13.4483C18.8197 12.9534 19.2205 12.5517 19.7163 12.5517ZM19.7241 1.7931C17.7463 1.7931 16.1379 3.40152 16.1379 5.37931C16.1379 7.3571 17.7463 8.96552 19.7241 8.96552C21.701 8.96552 23.3103 7.3571 23.3103 5.37931C23.3103 3.40152 21.701 1.7931 19.7241 1.7931ZM46.6207 1.7931C44.6429 1.7931 43.0345 3.40152 43.0345 5.37931C43.0345 7.3571 44.6429 8.96552 46.6207 8.96552C48.5985 8.96552 50.2069 7.3571 50.2069 5.37931C50.2069 3.40152 48.5985 1.7931 46.6207 1.7931Z" fill="black"/>
</svg>
