<svg width="40" height="48" viewBox="0 0 40 48" fill="none" xmlns="http://www.w3.org/2000/svg">
<path d="M37.3332 19.6667C37.3332 32.6667 19.9998 45.6667 19.9998 45.6667C19.9998 45.6667 2.6665 32.6667 2.6665 19.6667C2.6665 15.0696 4.49269 10.6608 7.74332 7.41014C10.9939 4.15951 15.4028 2.33333 19.9998 2.33333C24.5969 2.33333 29.0057 4.15951 32.2564 7.41014C35.507 10.6608 37.3332 15.0696 37.3332 19.6667Z" stroke="black" stroke-width="4" stroke-linecap="round" stroke-linejoin="round"/>
<path d="M20 26.1667C23.5899 26.1667 26.5 23.2565 26.5 19.6667C26.5 16.0768 23.5899 13.1667 20 13.1667C16.4101 13.1667 13.5 16.0768 13.5 19.6667C13.5 23.2565 16.4101 26.1667 20 26.1667Z" stroke="black" stroke-width="4" stroke-linecap="round" stroke-linejoin="round"/>
</svg>
