<svg width="48" height="54" viewBox="0 0 48 54" fill="none" xmlns="http://www.w3.org/2000/svg">
<path d="M16.268 45.704C15.9331 47.026 15.9112 48.408 16.204 49.74C5.96 48.292 0 41.056 0 34V32C0 30.4087 0.632141 28.8826 1.75736 27.7574C2.88258 26.6321 4.4087 26 6 26H30.092C30.152 27.42 30.6 28.804 31.404 30H6C5.46957 30 4.96086 30.2107 4.58579 30.5858C4.21071 30.9609 4 31.4696 4 32V34C4 39.012 8.352 44.4 16.268 45.704ZM20 0C22.9174 0 25.7153 1.15893 27.7782 3.22183C29.8411 5.28473 31 8.08262 31 11C31 13.9174 29.8411 16.7153 27.7782 18.7782C25.7153 20.8411 22.9174 22 20 22C17.0826 22 14.2847 20.8411 12.2218 18.7782C10.1589 16.7153 9 13.9174 9 11C9 8.08262 10.1589 5.28473 12.2218 3.22183C14.2847 1.15893 17.0826 0 20 0ZM20 4C18.1435 4 16.363 4.7375 15.0503 6.05025C13.7375 7.36301 13 9.14348 13 11C13 12.8565 13.7375 14.637 15.0503 15.9497C16.363 17.2625 18.1435 18 20 18C21.8565 18 23.637 17.2625 24.9497 15.9497C26.2625 14.637 27 12.8565 27 11C27 9.14348 26.2625 7.36301 24.9497 6.05025C23.637 4.7375 21.8565 4 20 4ZM34.336 24.324L35.468 21.324C36.5 18.604 39.716 17.26 42.428 18.416L43.98 19.08C45.872 19.888 47.44 21.352 47.768 23.32C49.596 34.22 40.136 49.724 29.248 53.68C27.28 54.392 25.152 53.84 23.468 52.696L22.084 51.756C21.5158 51.3733 21.0374 50.8718 20.6818 50.2862C20.3262 49.7007 20.1018 49.0449 20.0243 48.3642C19.9467 47.6836 20.0177 46.9941 20.2324 46.3436C20.4472 45.693 20.8005 45.0968 21.268 44.596L23.448 42.168C23.9591 41.6027 24.6123 41.1847 25.3397 40.9575C26.067 40.7302 26.842 40.7021 27.584 40.876L32.484 42.036C36.368 39.608 38.452 36.196 38.732 31.796L35.22 28.356C34.6941 27.8442 34.3301 27.1894 34.1729 26.4727C34.0158 25.7559 34.0725 25.0088 34.336 24.324Z" fill="black"/>
</svg>
