<svg width="20" height="20" viewBox="0 0 20 20" fill="white" xmlns="http://www.w3.org/2000/svg">
<path d="M17.5006 10C17.5006 9.77 17.4906 9.55 17.4706 9.32L19.3306 7.91C19.7306 7.61 19.8406 7.05 19.5906 6.61L17.7206 3.38C17.6007 3.16818 17.4068 3.00814 17.1761 2.93062C16.9454 2.8531 16.6941 2.86356 16.4706 2.96L14.3206 3.87C13.9506 3.61 13.5606 3.38 13.1506 3.19L12.8606 0.88C12.8006 0.38 12.3706 0 11.8706 0H8.14064C7.63064 0 7.20064 0.38 7.14064 0.88L6.85064 3.19C6.44064 3.38 6.05064 3.61 5.68064 3.87L3.53064 2.96C3.07064 2.76 2.53064 2.94 2.28064 3.38L0.410642 6.62C0.160642 7.06 0.270642 7.61 0.670642 7.92L2.53064 9.33C2.48919 9.77905 2.48919 10.231 2.53064 10.68L0.670642 12.09C0.270642 12.39 0.160642 12.95 0.410642 13.39L2.28064 16.62C2.53064 17.06 3.07064 17.24 3.53064 17.04L5.68064 16.13C6.05064 16.39 6.44064 16.62 6.85064 16.81L7.14064 19.12C7.20064 19.62 7.63064 20 8.13064 20H11.8606C12.3606 20 12.7906 19.62 12.8506 19.12L13.1406 16.81C13.5506 16.62 13.9406 16.39 14.3106 16.13L16.4606 17.04C16.9206 17.24 17.4606 17.06 17.7106 16.62L19.5806 13.39C19.8306 12.95 19.7206 12.4 19.3206 12.09L17.4606 10.68C17.4906 10.45 17.5006 10.23 17.5006 10ZM10.0406 13.5C8.11064 13.5 6.54064 11.93 6.54064 10C6.54064 8.07 8.11064 6.5 10.0406 6.5C11.9706 6.5 13.5406 8.07 13.5406 10C13.5406 11.93 11.9706 13.5 10.0406 13.5Z" />
</svg>
