<svg width="58" height="58" viewBox="0 0 58 58" fill="none" xmlns="http://www.w3.org/2000/svg">
<path d="M27.875 0V1.9C13.8 2.47625 2.47625 13.8 1.9 27.875H0V30.125H1.9C2.47625 44.2 13.8 55.525 27.875 56.1V58H30.125V56.1C44.2 55.525 55.525 44.2 56.1 30.125H58V27.875H56.1C55.525 13.8 44.2 2.47625 30.125 1.9V0H27.875ZM27.875 4.15125V8H30.125V4.15125C42.975 4.7225 53.275 15.025 53.85 27.875H50V30.125H53.85C53.275 42.975 42.975 53.275 30.125 53.85V50H27.875V53.85C15.025 53.275 4.7225 42.975 4.15125 30.125H8V27.875H4.15125C4.7225 15.025 15.025 4.7225 27.875 4.15125ZM29 10.75C26.8783 10.75 24.8434 11.5929 23.3431 13.0931C21.8429 14.5934 21 16.6283 21 18.75C21.0006 20.2991 21.451 21.8147 22.2964 23.1128C23.1418 24.4109 24.3459 25.4356 25.7625 26.0625C18.575 32.1125 17.2375 40.7 19 47.75H39C40.7625 40.7 39.4125 32.1 32.2375 26.05C33.6521 25.424 34.8549 24.4012 35.7002 23.1055C36.5455 21.8099 36.997 20.297 37 18.75C37 16.6283 36.1571 14.5934 34.6569 13.0931C33.1566 11.5929 31.1217 10.75 29 10.75Z" fill="black"/>
</svg>
